<svg id="Layer_1" xmlns="http://www.w3.org/2000/svg" viewBox="0 0 174 174"><style>.st0{fill:#fff}</style><title>Free Bingo</title><path class="st0" d="M87 0C39 0 0 39 0 87s39 87 87 87 87-39 87-87S135 0 87 0zM70.5 80.7v8.4H55.9v5.3c0 2.8-.3 5.1-.9 6.9-.6 1.8-1.7 3.3-3.2 4.5h31.5v11.3H35.2v-9.5c2.6-1.3 4.4-2.8 5.3-4.4.9-1.6 1.4-3.9 1.4-6.9v-7.2h-6.7v-8.4h6.7V70.1c0-3.6.9-6.7 2.6-9.5 1.7-2.8 4.2-4.9 7.3-6.4 3.2-1.5 6.8-2.3 10.9-2.3 4.2 0 8.1.6 11.8 1.9 3.7 1.2 7 3 9.8 5.4l-4.6 10.1c-2.8-2-5.5-3.6-8.3-4.7-2.7-1.1-5.3-1.6-7.5-1.6-5.3 0-8 2.7-8 8v9.6h14.6zm58.6 28.7c-4.1 5.7-10.1 8.5-17.9 8.5s-13.7-2.8-17.9-8.5c-4.1-5.7-6.2-13.9-6.2-24.6 0-10.6 2.1-18.7 6.2-24.3 4.1-5.6 10.1-8.4 17.9-8.4s13.7 2.8 17.9 8.4c4.1 5.6 6.2 13.7 6.2 24.3 0 10.8-2.1 19-6.2 24.6z"/><path class="st0" d="M111.2 63c-3.6 0-6.1 1.7-7.8 5.2-1.6 3.5-2.4 9-2.4 16.7 0 7.8.8 13.5 2.4 17 1.6 3.5 4.2 5.2 7.8 5.2 3.6 0 6.1-1.7 7.8-5.2 1.6-3.5 2.4-9.2 2.4-17 0-7.7-.8-13.2-2.4-16.7-1.6-3.5-4.2-5.2-7.8-5.2z"/></svg>