<svg id="Layer_1" xmlns="http://www.w3.org/2000/svg" viewBox="0 0 371.5 165.3"><style>.st0{fill:#d2c1d3}.st1{fill:#e0d7e1}.st2{fill:none;stroke:#e0d7e1;stroke-width:1.1643;stroke-linecap:square}</style><title>Bingo preload item</title><g id="_x30_2b-home-logged-image-placeholders" transform="translate(-52 -424)"><g id="Bingo" transform="translate(52 382)"><g id="Group-10-Copy-4"><g id="Group-71" transform="translate(0 42)"><g id="Group-48"><g id="Group-12"><path id="Rectangle-8-Copy-2" class="st0" d="M14.1 0h343.3c7.8 0 14.1 6.3 14.1 14.1v137.1c0 7.8-6.3 14.1-14.1 14.1H14.1C6.3 165.3 0 159 0 151.2V14.1C0 6.3 6.3 0 14.1 0z"/><g id="Group-11" transform="translate(300.16 20.092)"><g id="Ticket" transform="translate(.041)"><path id="Rectangle-9" class="st1" d="M6.1 0h44.4c3 0 5.5 2.5 5.5 5.5S53.5 11 50.5 11H6.1C3.1 11 .6 8.5.6 5.5S3.1 0 6.1 0z"/></g></g><g id="Group-11_1_" transform="translate(229.479 20.092)"><g id="Ticket_1_" transform="translate(.041)"><path id="Rectangle-9_1_" class="st1" d="M6.1 0h44.4c3 0 5.5 2.5 5.5 5.5S53.5 11 50.5 11H6.1C3.1 11 .6 8.5.6 5.5S3.1 0 6.1 0z"/></g></g><g id="Group-8" transform="translate(16.654 15.092)"><g id="Type"><g id="Game-Type"><g id="Icon" transform="translate(.725 .287)"><circle id="Oval-5" class="st1" cx="23" cy="23" r="22.9"/></g></g></g></g><path id="Rectangle-2" class="st1" d="M22 69h88c3.3 0 6 2.7 6 6s-2.7 6-6 6H22c-3.3 0-6-2.7-6-6s2.7-6 6-6z"/><path id="Rectangle-2_1_" class="st1" d="M25 86h109.9c5 0 9 4 9 9s-4 9-9 9H25c-5 0-9-4-9-9s4-9 9-9z"/><path id="Rectangle-2_2_" class="st1" d="M225.9 87H349c5 0 9 4 9 9s-4 9-9 9H225.9c-5 0-9-4-9-9s4-9 9-9z"/></g><g id="Group-7-Copy-3" transform="translate(15.654 125.548)"><circle id="Oval-3" class="st1" cx="51.5" cy="14.5" r="9.5"/><circle id="Oval-3_1_" class="st1" cx="9.5" cy="14.5" r="9.5"/><path id="Line-6-Copy-2" class="st2" d="M29.6.6v27.8"/></g><path id="Rectangle-8" class="st1" d="M220 127h123c8.3 0 15 6.7 15 15s-6.7 15-15 15H220c-8.3 0-15-6.7-15-15s6.7-15 15-15z"/></g></g></g></g></g></svg>