<svg id="Layer_1" xmlns="http://www.w3.org/2000/svg" viewBox="0 0 175 175"><style>.st0{fill:#fff}</style><title>75 Ball Bingo</title><path class="st0" d="M87.5 0C39.2 0 0 39.2 0 87.5S39.2 175 87.5 175 175 135.8 175 87.5 135.8 0 87.5 0zm-3.7 67.4l-28.7 54H40l28.6-53.2H37.5V56.9h46.3v10.5zm48.7 44.4c-2 3.3-4.9 5.8-8.7 7.6-3.8 1.8-8.2 2.7-13.2 2.7-4.1 0-8.2-.7-12.2-2s-7.3-3.1-9.7-5.3l4.5-10.1c5.7 4.2 11.6 6.2 17.6 6.2 7.5 0 11.3-3.4 11.3-10.1 0-3.2-1-5.7-2.9-7.6-2-1.8-4.6-2.8-8-2.8-2.1 0-4.2.4-6.4 1.2-2.1.8-4.1 1.9-5.8 3.3h-8.1v-38h41.4v10.9h-27.6v14.4c2.8-1.7 6.3-2.5 10.3-2.5 4 0 7.5.9 10.6 2.6s5.5 4.2 7.2 7.3c1.7 3.1 2.6 6.8 2.6 10.9.1 4.2-.9 8-2.9 11.3z"/></svg>