<svg id="Layer_1" xmlns="http://www.w3.org/2000/svg" viewBox="0 0 175 175"><style>.st0{fill:#fff}</style><title>90 Ball Bingo</title><path class="st0" d="M114.8 66c-3.6 0-6.2 1.7-7.8 5.2-1.6 3.5-2.4 9-2.4 16.7 0 7.9.8 13.5 2.5 17s4.2 5.2 7.8 5.2c3.6 0 6.2-1.8 7.8-5.2 1.6-3.5 2.5-9.2 2.5-17 0-7.7-.8-13.2-2.5-16.7-1.8-3.5-4.4-5.2-7.9-5.2z"/><path class="st0" d="M87.5 0C39.2 0 0 39.2 0 87.5S39.2 175 87.5 175 175 135.8 175 87.5 135.8 0 87.5 0zm-6.3 105.3c-1.9 4.7-5.1 8.8-9.3 11.7-4.3 2.8-9.4 4.2-14.5 4.1-3.9 0-7.9-.6-11.6-1.9-3.5-1.1-6.8-3-9.6-5.3l4.6-10.1c5.5 4.2 10.8 6.2 15.9 6.2 4 .1 7.7-1.8 9.8-5.1 2.3-3.4 3.6-8.4 3.9-15-1.4 2.4-3.5 4.4-6 5.8-2.7 1.4-5.7 2.2-8.7 2.1-3.5.1-7-.9-10.1-2.7-3-1.8-5.4-4.3-7-7.4-1.7-3.3-2.6-7.1-2.5-10.8-.1-4 .9-7.9 2.8-11.3 1.9-3.3 4.6-6 7.9-7.8 3.5-1.9 7.4-2.9 11.4-2.9 8.4 0 14.9 2.8 19.4 8.3 4.5 5.6 6.8 13.5 6.8 23.7.2 6.4-.9 12.6-3.2 18.4zm51.5 7.3c-4.1 5.7-10.1 8.5-17.9 8.5s-13.8-2.8-17.9-8.5-6.2-13.9-6.2-24.6c0-10.6 2.1-18.8 6.2-24.4s10.1-8.4 17.9-8.4 13.8 2.8 17.9 8.4 6.2 13.7 6.2 24.3c0 10.8-2.1 19-6.2 24.7z"/><path class="st0" d="M59 66c-2.6-.1-5.1.9-6.9 2.8-1.8 2.1-2.7 4.7-2.6 7.4-.2 2.8.8 5.5 2.5 7.6 1.8 1.9 4.4 2.9 7 2.8 2.6.1 5.2-.9 7-2.9s2.8-4.7 2.7-7.5c.1-2.7-.9-5.3-2.7-7.3-1.8-1.9-4.3-2.9-7-2.9z"/></svg>