<svg id="Layer_1" xmlns="http://www.w3.org/2000/svg" viewBox="0 0 59 41.8"><style>.st0{fill:#fff}</style><title>Speed Bingo</title><g id="BingoGodz_StyleGuide"><g id="StyleGuide-02" transform="translate(-1353 -768)"><path id="Fill-1" class="st0" d="M1386.2 797.9c-10.9 2.1-21.2 6.2-30.2 11.8 7.4-6.5 16.3-12 26.1-15.8 1.1 1.6 2.5 2.9 4.1 4m-7.3-10.6c.4 1.7 1.1 3.4 2 5-9.9 4-19 9.6-26.5 16.4 6.5-8.3 14.8-15.6 24.5-21.4m1-11c-.9 2.2-1.4 4.6-1.4 7 0 .6 0 1.2.1 1.8-10.1 6.1-18.8 13.8-25.5 22.4 6.1-11.7 15.3-22.3 26.8-31.2m19 12.8c-4.5 0-8.2-3.6-8.2-8s3.7-8 8.2-8c4.5 0 8.2 3.6 8.2 8s-3.7 8-8.2 8m0-1.3c3.8 0 6.8-3 6.8-6.7s-3-6.7-6.8-6.7-6.8 3-6.8 6.7 3.1 6.7 6.8 6.7m-2.4 10.8c-8.6 0-15.5-6.9-15.5-15.3 0-8.5 6.9-15.3 15.5-15.3s15.5 6.9 15.5 15.3c0 8.5-6.9 15.3-15.5 15.3m2.2-7.6c5.5 0 10-4.4 10-9.8s-4.5-9.8-10-9.8-10 4.4-10 9.8 4.5 9.8 10 9.8"/></g></g></svg>