<?xml version="1.0" encoding="UTF-8"?>
<svg width="218px" height="128px" viewBox="0 0 218 128" version="1.1" xmlns="http://www.w3.org/2000/svg" xmlns:xlink="http://www.w3.org/1999/xlink">
  <g id="logo">
    <path d="M108.99493,30.6210648 C114.013499,21.1699907 124.022932,14.7197359 135.539536,14.7197359 C141.73375,14.7197359 147.469695,16.5862069 152.236497,19.7597212 L152.236497,0 L165.458846,0 L165.458846,15.5997799 L158.968629,25.9196625 L152.236127,37.3862803 L151.347376,38.9064563 C149.085303,32.4262656 142.864416,27.7597212 135.539166,27.7597212 C126.301934,27.7597212 118.788487,35.1731475 118.788487,44.3462949 C118.788487,53.4930301 126.275261,60.9328687 135.539166,60.9328687 C160.234516,60.9328687 152.990028,14.7468819 188.08032,14.7468819 C204.588713,14.7468819 218,28 218,44.3730741 C218,46.2131328 217.838106,48.0264123 217.488014,49.7865004 L172.245436,49.7865004 L172.460678,50.3730741 C174.884275,56.5594277 180.970682,60.9328687 188.053276,60.9328687 C193.062364,60.9328687 197.559837,58.7461482 200.6299,55.2798973 L211.078559,63.226339 C205.5849,69.7861335 197.317181,73.972854 188.026232,73.972854 C178.438909,73.972854 169.902231,69.4930301 164.435245,62.5597946 L176.284271,38.9332355 L203.861116,38.9332355 C201.599042,32.4266324 195.378155,27.760088 188.026232,27.760088 C163.465732,27.760088 172.433634,73.9464417 135.485448,73.9464417 C120.860311,73.9464417 108.665958,63.5443573 106.074057,49.7865004 L66.5985358,49.7865004 L67.0834775,50.8532649 C69.6419247,56.7997065 75.5664377,60.9600147 82.4875078,60.9600147 C87.4965961,60.9600147 91.9940691,58.7732942 95.0637612,55.3066764 L104.974132,63.8932502 C99.4804723,70.0796038 91.4550392,74 82.4604637,74 C72.8735109,74 64.3364625,69.5198092 58.8694766,62.5865737 L70.9611587,38.9603815 L98.2953474,38.9603815 C96.0332741,32.4537784 89.8123872,27.787234 82.4604637,27.787234 C57.8999636,27.787234 66.1406382,73.9735877 29.9193095,73.9735877 C13.3842426,73.9471753 0,60.6936904 0,44.3206163 L0,0.0542920029 L13.2227188,0.0542920029 L13.2227188,19.7608217 C17.9891511,16.5597946 23.7250963,14.7197359 29.9193095,14.7197359 C39.4258709,14.7197359 47.8817869,19.09281 53.3487729,25.9464417 L45.7275196,38.9064563 C43.4654463,32.4262656 37.2445594,27.7597212 29.9193095,27.7597212 C21.0592136,27.7597212 13.815096,34.5862069 13.2227188,43.226339 L13.2227188,44.3462949 C13.1956747,53.4930301 20.6820779,60.9328687 29.9463536,60.9328687 C54.6413333,60.9328687 46.8048385,14.7468819 82.4875078,14.7468819 C93.9897601,14.7468819 103.988482,21.1807809 108.99493,30.6210648 Z" id="Combined-Shape" fill="#DB0E17" fill-rule="nonzero"></path>
    <path d="M28.2695925,96.6747312 C27.4043844,95.5958727 26.3416991,94.767476 25.0815047,94.1895161 C23.8213103,93.6115563 22.3636446,93.3225806 20.7084639,93.3225806 C19.0532833,93.3225806 17.5203832,93.6500863 16.1097179,94.3051075 C14.6990525,94.9601287 13.4764942,95.8752181 12.4420063,97.0504032 C11.4075183,98.2255883 10.598749,99.6223037 10.015674,101.240591 C9.43259897,102.858879 9.14106583,104.611998 9.14106583,106.5 C9.14106583,108.426533 9.43259897,110.189284 10.015674,111.788306 C10.598749,113.387329 11.398114,114.774412 12.4137931,115.949597 C13.4294722,117.124782 14.6238176,118.039871 15.9968652,118.694892 C17.3699128,119.349914 18.8463871,119.677419 20.4263323,119.677419 C22.2319839,119.677419 23.830714,119.292119 25.2225705,118.521505 C26.614427,117.750892 27.761751,116.67205 28.6645768,115.284946 L36,120.891129 C34.3072016,123.318561 32.1630224,125.110209 29.5673981,126.266129 C26.9717739,127.422049 24.3009542,128 21.5548589,128 C18.4325863,128 15.5548721,127.499109 12.9216301,126.497312 C10.2883881,125.495515 8.01254878,124.060269 6.09404389,122.191532 C4.175539,120.322795 2.68025614,118.059153 1.60815047,115.400538 C0.536044796,112.741922 0,109.775106 0,106.5 C0,103.224894 0.536044796,100.258078 1.60815047,97.5994624 C2.68025614,94.9408469 4.175539,92.6772047 6.09404389,90.8084677 C8.01254878,88.9397308 10.2883881,87.5044853 12.9216301,86.5026882 C15.5548721,85.500891 18.4325863,85 21.5548589,85 C22.6833912,85 23.8589281,85.1059577 25.0815047,85.3178763 C26.3040813,85.529795 27.5078311,85.8669332 28.69279,86.3293011 C29.8777489,86.791669 31.0156685,87.4081503 32.1065831,88.1787634 C33.1974976,88.9493766 34.1755443,89.8933636 35.0407524,91.0107527 L28.2695925,96.6747312 Z M54.2974428,86 L61.589502,86 L79,127 L69.051144,127 L65.602961,118.313559 L50.0578735,118.313559 L46.7227456,127 L37,127 L54.2974428,86 Z M56.9710983,98 L52,111 L62,111 L56.9710983,98 Z M101.870841,96.0389785 C101.151986,95.1142427 100.177762,94.4303338 98.9481409,93.9872312 C97.7185196,93.5441286 96.5551262,93.3225806 95.4579256,93.3225806 C94.8147391,93.3225806 94.1526453,93.3996408 93.4716243,93.5537634 C92.7906032,93.7078861 92.1474264,93.9486991 91.5420744,94.2762097 C90.9367223,94.6037203 90.4448812,95.0371837 90.0665362,95.5766129 C89.6881912,96.1160421 89.4990215,96.7710535 89.4990215,97.5416667 C89.4990215,98.7746477 89.9530287,99.7186347 90.8610568,100.373656 C91.7690848,101.028677 92.9135613,101.587363 94.2945205,102.049731 C95.6754798,102.512099 97.1604617,102.97446 98.7495108,103.436828 C100.33856,103.899196 101.823542,104.554207 103.204501,105.401882 C104.58546,106.249556 105.729937,107.386194 106.637965,108.811828 C107.545993,110.237462 108,112.144701 108,114.533602 C108,116.806911 107.583827,118.79121 106.751468,120.486559 C105.919109,122.181908 104.793549,123.588256 103.374755,124.705645 C101.955962,125.823034 100.310185,126.651431 98.4373777,127.19086 C96.5645699,127.730289 94.5877469,128 92.5068493,128 C89.8962687,128 87.474897,127.595434 85.2426614,126.78629 C83.0104259,125.977146 80.9295595,124.667124 79,122.856183 L85.2994129,115.805108 C86.2074409,117.038089 87.3519174,117.991708 88.7328767,118.665995 C90.113836,119.340281 91.542067,119.677419 93.0176125,119.677419 C93.736468,119.677419 94.4647713,119.590727 95.202544,119.417339 C95.9403168,119.243951 96.6024106,118.983873 97.1888454,118.637097 C97.7752802,118.290321 98.2482043,117.847225 98.6076321,117.307796 C98.9670599,116.768366 99.146771,116.13262 99.146771,115.400538 C99.146771,114.167557 98.6833054,113.194672 97.7563601,112.481855 C96.8294148,111.769038 95.6660214,111.162189 94.2661448,110.66129 C92.8662683,110.160392 91.3529109,109.659501 89.7260274,109.158602 C88.0991439,108.657704 86.5857865,107.983427 85.18591,107.135753 C83.7860334,106.288078 82.62264,105.170706 81.6956947,103.783602 C80.7687494,102.396498 80.3052838,100.56632 80.3052838,98.2930108 C80.3052838,96.0967632 80.7309155,94.1702592 81.5821918,92.5134409 C82.4334681,90.8566225 83.5684861,89.4695396 84.9872798,88.3521505 C86.4060736,87.2347614 88.0423913,86.3967322 89.8962818,85.8380376 C91.7501723,85.2793431 93.660786,85 95.62818,85 C97.8982501,85 100.092618,85.3275057 102.21135,85.9825269 C104.330082,86.6375481 106.240696,87.7356554 107.943249,89.2768817 L101.870841,96.0389785 Z M115,86 L124,86 L124,127 L115,127 L115,86 Z M131,86 L143.005961,86 L160.052161,114.491525 L160.165425,114.491525 L160.165425,86 L169,86 L169,127 L157.447094,127 L139.947839,97.8135593 L139.834575,97.8135593 L139.834575,127 L131,127 L131,86 Z M175,106.5 C175,103.224894 175.534681,100.258078 176.604058,97.5994624 C177.673435,94.9408469 179.164912,92.6772047 181.078534,90.8084677 C182.992156,88.9397308 185.262203,87.5044853 187.888743,86.5026882 C190.515284,85.500891 193.385674,85 196.5,85 C199.614326,85 202.484716,85.500891 205.111257,86.5026882 C207.737797,87.5044853 210.007844,88.9397308 211.921466,90.8084677 C213.835088,92.6772047 215.326565,94.9408469 216.395942,97.5994624 C217.465319,100.258078 218,103.224894 218,106.5 C218,109.775106 217.465319,112.741922 216.395942,115.400538 C215.326565,118.059153 213.835088,120.322795 211.921466,122.191532 C210.007844,124.060269 207.737797,125.495515 205.111257,126.497312 C202.484716,127.499109 199.614326,128 196.5,128 C193.385674,128 190.515284,127.499109 187.888743,126.497312 C185.262203,125.495515 182.992156,124.060269 181.078534,122.191532 C179.164912,120.322795 177.673435,118.059153 176.604058,115.400538 C175.534681,112.741922 175,109.775106 175,106.5 Z M184,106 C184,107.900594 184.293558,109.639612 184.880682,111.217105 C185.467806,112.794599 186.310601,114.163006 187.409091,115.322368 C188.507581,116.481731 189.823856,117.3845 191.357955,118.030702 C192.892053,118.676904 194.606051,119 196.5,119 C198.393949,119 200.107947,118.676904 201.642045,118.030702 C203.176144,117.3845 204.492419,116.481731 205.590909,115.322368 C206.689399,114.163006 207.532194,112.794599 208.119318,111.217105 C208.706442,109.639612 209,107.900594 209,106 C209,104.137418 208.706442,102.407903 208.119318,100.811404 C207.532194,99.2149043 206.689399,97.8369941 205.590909,96.6776316 C204.492419,95.5182691 203.176144,94.6155003 201.642045,93.9692982 C200.107947,93.3230962 198.393949,93 196.5,93 C194.606051,93 192.892053,93.3230962 191.357955,93.9692982 C189.823856,94.6155003 188.507581,95.5182691 187.409091,96.6776316 C186.310601,97.8369941 185.467806,99.2149043 184.880682,100.811404 C184.293558,102.407903 184,104.137418 184,106 Z" id="CASINO-Copy" fill="#A3A5B5"></path>
  </g>
</svg>
