<svg version="1.1" xmlns="http://www.w3.org/2000/svg" xmlns:xlink="http://www.w3.org/1999/xlink" x="0px" y="0px" viewBox="0 0 261 167.1" style="enable-background:new 0 0 261 167.1;" xml:space="preserve">
	<path fill="#DB0E17" d="M129,50.7c5-9.5,15-15.9,26.5-15.9c6.2,0,11.9,1.9,16.7,5V20.1h13.2v15.6L179,46
		l-6.7,11.5l-0.9,1.5c-2.3-6.5-8.5-11.1-15.8-11.1c-9.2,0-16.8,7.4-16.8,16.6c0,9.1,7.5,16.6,16.8,16.6
		c24.7,0,17.5-46.2,52.5-46.2c16.5,0,29.9,13.3,29.9,29.6c0,1.8-0.2,3.7-0.5,5.4h-45.2l0.2,0.6c2.4,6.2,8.5,10.6,15.6,10.6
		c5,0,9.5-2.2,12.6-5.7l10.4,7.9C225.6,89.8,217.3,94,208,94c-9.6,0-18.1-4.5-23.6-11.4L196.3,59h27.6
		c-2.3-6.5-8.5-11.2-15.8-11.2c-24.6,0-15.6,46.2-52.5,46.2c-14.6,0-26.8-10.4-29.4-24.2H86.6l0.5,1.1c2.6,5.9,8.5,10.1,15.4,10.1
		c5,0,9.5-2.2,12.6-5.7l9.9,8.6c-5.5,6.2-13.5,10.1-22.5,10.1c-9.6,0-18.1-4.5-23.6-11.4L91,59h27.3c-2.3-6.5-8.5-11.2-15.8-11.2
		C77.9,47.8,86.1,94,49.9,94C33.4,94,20,80.7,20,64.4V20.1h13.2v19.7c4.8-3.2,10.5-5,16.7-5c9.5,0,18,4.4,23.4,11.2l-7.6,13
		c-2.3-6.5-8.5-11.1-15.8-11.1c-8.9,0-16.1,6.8-16.7,15.5v1.1c0,9.1,7.5,16.6,16.7,16.6c24.7,0,16.9-46.2,52.5-46.2
		C114,34.8,124,41.2,129,50.7z"/>
	<path fill="#A3A5B5" d="M48.3,116.7c-0.9-1.1-1.9-1.9-3.2-2.5s-2.7-0.9-4.4-0.9s-3.2,0.3-4.6,1s-2.6,1.6-3.7,2.7
		c-1,1.2-1.8,2.6-2.4,4.2s-0.9,3.4-0.9,5.3s0.3,3.7,0.9,5.3c0.6,1.6,1.4,3,2.4,4.2s2.2,2.1,3.6,2.7c1.4,0.7,2.8,1,4.4,1
		c1.8,0,3.4-0.4,4.8-1.2c1.4-0.8,2.5-1.8,3.4-3.2l7.3,5.6c-1.7,2.4-3.8,4.2-6.4,5.4c-2.6,1.2-5.3,1.7-8,1.7c-3.1,0-6-0.5-8.6-1.5
		s-4.9-2.4-6.8-4.3c-1.9-1.9-3.4-4.1-4.5-6.8s-1.6-5.6-1.6-8.9c0-3.3,0.5-6.2,1.6-8.9s2.6-4.9,4.5-6.8s4.2-3.3,6.8-4.3
		s5.5-1.5,8.6-1.5c1.1,0,2.3,0.1,3.5,0.3c1.2,0.2,2.4,0.5,3.6,1c1.2,0.5,2.3,1.1,3.4,1.8c1.1,0.8,2.1,1.7,2.9,2.8L48.3,116.7z
		 M74.3,106.1h7.3l17.4,41h-9.9l-3.4-8.7H70.1l-3.3,8.7H57L74.3,106.1z M77,118.1l-5,13h10L77,118.1z M121.9,116.1
		c-0.7-0.9-1.7-1.6-2.9-2.1c-1.2-0.4-2.4-0.7-3.5-0.7c-0.6,0-1.3,0.1-2,0.2s-1.3,0.4-1.9,0.7c-0.6,0.3-1.1,0.8-1.5,1.3
		s-0.6,1.2-0.6,2c0,1.2,0.5,2.2,1.4,2.8s2.1,1.2,3.4,1.7c1.4,0.5,2.9,0.9,4.5,1.4s3.1,1.1,4.5,2c1.4,0.8,2.5,2,3.4,3.4
		c0.9,1.4,1.4,3.3,1.4,5.7c0,2.3-0.4,4.3-1.2,6c-0.8,1.7-2,3.1-3.4,4.2c-1.4,1.1-3.1,1.9-4.9,2.5s-3.8,0.8-5.9,0.8
		c-2.6,0-5-0.4-7.3-1.2c-2.2-0.8-4.3-2.1-6.2-3.9l6.3-7.1c0.9,1.2,2.1,2.2,3.4,2.9s2.8,1,4.3,1c0.7,0,1.4-0.1,2.2-0.3
		s1.4-0.4,2-0.8c0.6-0.3,1.1-0.8,1.4-1.3c0.4-0.5,0.5-1.2,0.5-1.9c0-1.2-0.5-2.2-1.4-2.9s-2.1-1.3-3.5-1.8s-2.9-1-4.5-1.5
		s-3.1-1.2-4.5-2s-2.6-2-3.5-3.4s-1.4-3.2-1.4-5.5c0-2.2,0.4-4.1,1.3-5.8c0.9-1.7,2-3,3.4-4.2s3.1-2,4.9-2.5
		c1.9-0.6,3.8-0.8,5.7-0.8c2.3,0,4.5,0.3,6.6,1s4,1.8,5.7,3.3L121.9,116.1z M135,106.1h9v41h-9V106.1z M151,106.1h12l17,28.5h0.1
		v-28.5h8.8v41h-11.6l-17.5-29.2h-0.1v29.2H151V106.1z M195,126.6c0-3.3,0.5-6.2,1.6-8.9c1.1-2.7,2.6-4.9,4.5-6.8s4.2-3.3,6.8-4.3
		s5.5-1.5,8.6-1.5s6,0.5,8.6,1.5s4.9,2.4,6.8,4.3c1.9,1.9,3.4,4.1,4.5,6.8c1.1,2.7,1.6,5.6,1.6,8.9c0,3.3-0.5,6.2-1.6,8.9
		s-2.6,4.9-4.5,6.8c-1.9,1.9-4.2,3.3-6.8,4.3s-5.5,1.5-8.6,1.5s-6-0.5-8.6-1.5s-4.9-2.4-6.8-4.3c-1.9-1.9-3.4-4.1-4.5-6.8
		S195,129.8,195,126.6z M204,126.1c0,1.9,0.3,3.6,0.9,5.2c0.6,1.6,1.4,2.9,2.5,4.1c1.1,1.2,2.4,2.1,3.9,2.7c1.5,0.6,3.2,1,5.1,1
		s3.6-0.3,5.1-1c1.5-0.6,2.9-1.5,3.9-2.7c1.1-1.2,1.9-2.5,2.5-4.1s0.9-3.3,0.9-5.2c0-1.9-0.3-3.6-0.9-5.2c-0.6-1.6-1.4-3-2.5-4.1
		c-1.1-1.2-2.4-2.1-3.9-2.7s-3.2-1-5.1-1s-3.6,0.3-5.1,1s-2.9,1.5-3.9,2.7c-1.1,1.2-1.9,2.5-2.5,4.1
		C204.3,122.5,204,124.2,204,126.1z"/>
</svg>
