<svg id="Layer_1" xmlns="http://www.w3.org/2000/svg" viewBox="0 0 134.9 32.7"><title>gambling-commission</title><path class="st0" d="M12.8 10.9c0 1.3 0 2.3.1 3-1.7.6-3.5.8-5.3.8-1.9 0-3.8-.6-5.3-1.9C.8 11.6 0 9.7 0 7.8c-.1-2.1.7-4.2 2.3-5.6C3.9.7 6.1-.1 8.3 0c1.5 0 3.1.3 4.5.8l-.7 1.8c-1.1-.5-2.4-.7-3.6-.8-1.6-.1-3.2.5-4.3 1.5-2 2.4-2 5.9.1 8.2 1 1 2.3 1.5 3.7 1.5.8 0 1.5-.1 2.3-.2V8.2H13c-.2.8-.2 1.7-.2 2.7zm4.1 3.6h-2.4c2-4 4.1-8.8 6.4-14.4h2.5c1.7 4.6 3.6 9.4 5.8 14.4h-2.9l-1.5-4h-6c-.7 1.4-1.3 2.7-1.9 4zm4.9-12c-.4 1.1-1.2 3.1-2.5 6.2H24c-.7-2-1.5-4.1-2.2-6.2zm26.1 12h-2.6c-.1-3.8-.2-7.6-.4-11.3-1.7 3.7-3.3 7.5-4.7 11.3h-2.3c-1.4-3.9-2.8-7.7-4.4-11.3-.3 2.5-.4 4.3-.5 5.5-.2 2.2-.3 4.1-.4 5.8h-2.3c.6-4.4 1-9.1 1.3-14.3h3.2c2 4.6 3.5 8.5 4.6 11.7 1.5-4 3.2-7.9 4.9-11.7h3c-.1 4.2.2 9 .6 14.3zm2.6 0c.1-2.1.1-4.4.1-6.9 0-2.7 0-5.1-.1-7.4h4.3c1.4-.1 2.8.2 4.1.9.9.5 1.5 1.5 1.5 2.5 0 .8-.3 1.5-.8 2-.5.6-1.3 1-2.1 1.1.9.2 1.8.7 2.5 1.3.6.6 1 1.4 1 2.2 0 2.8-2 4.2-6.1 4.2l-4.4.1zm4-12.5h-1.4v4.2h1.4c2.3 0 3.4-.7 3.4-2.2s-1.1-2.1-3.4-2zm4 8.4c0-1.5-1.3-2.3-4-2.3H53v4.7h1.5c2.6-.1 4-.9 4-2.4zM66 7.6c0 1.6 0 3.3.1 5.1 2.8 0 4.9 0 6.4-.1l-.7 1.9h-8.3c.1-2.1.1-4.4.1-6.9 0-2.7 0-5.1-.1-7.4h2.7C66.1 2.5 66 5 66 7.6zm10.9 0c0 2.5 0 4.8.1 6.9h-2.7c.1-2.1.1-4.4.1-6.9 0-2.7 0-5.1-.1-7.4H77c-.1 2.3-.1 4.8-.1 7.4zm13 3.1c0-4.7 0-8.2-.1-10.5h2.3c0 2.3-.1 4.8-.1 7.4 0 2.5 0 4.8.1 6.9h-2.3c-3.3-5-5.8-8.7-7.7-11.3 0 5 0 8.8.1 11.3h-2.3c.1-2.1.1-4.4.1-6.9 0-2.7 0-5.1-.1-7.4h2.8c2.4 3.3 4.8 6.8 7.2 10.5zm17.5.2c0 1.3 0 2.3.1 3-1.7.6-3.5.8-5.3.8-1.9 0-3.8-.6-5.3-1.9-1.5-1.2-2.3-3.1-2.3-5-.1-2.1.7-4.2 2.3-5.6 1.6-1.5 3.8-2.3 6-2.2 1.5 0 3.1.3 4.5.8l-.7 1.8c-1.2-.5-2.4-.8-3.7-.8-1.5-.1-3.1.4-4.2 1.5-2 2.4-2 5.9.1 8.2 1 1 2.3 1.5 3.7 1.5.8 0 1.5-.1 2.2-.2V8.1h2.7c-.1.9-.1 1.8-.1 2.8zM7.9 32.6c-2 .1-3.9-.6-5.4-1.9-1.4-1.3-2.2-3.1-2.2-5-.1-2.1.8-4.2 2.3-5.7 1.5-1.4 3.5-2.2 5.6-2.1 1.4 0 2.9.2 4.2.7l-.7 1.8c-1.1-.5-2.2-.7-3.4-.7-1.4-.1-2.9.4-3.9 1.4-1 1.1-1.6 2.6-1.5 4.1-.1 1.5.5 2.9 1.5 4 1 1 2.3 1.6 3.8 1.5 1.2 0 2.5-.3 3.5-.9l.7 1.7c-1.3.8-2.9 1.1-4.5 1.1zm6-7.1c-.2-4 2.9-7.4 6.9-7.6h.6c2-.1 4 .6 5.5 2 1.4 1.4 2.2 3.3 2.1 5.2.1 2-.7 4-2.2 5.4-1.5 1.4-3.4 2.2-5.4 2.1-2 .1-4-.6-5.5-2-1.3-1.3-2-3.2-2-5.1zm12.4-.2c.1-1.4-.4-2.9-1.3-4-.9-1-2.1-1.6-3.5-1.5-1.3-.1-2.6.5-3.5 1.5-.9 1.1-1.4 2.6-1.3 4-.1 1.4.4 2.9 1.3 4 1.8 1.9 4.8 2 6.7.3l.3-.2c.9-1.3 1.4-2.7 1.3-4.1zm22.3 7.1H46c-.1-3.8-.2-7.6-.4-11.3-1.7 3.7-3.3 7.5-4.8 11.3h-2.3c-1.4-3.9-2.8-7.7-4.4-11.3-.2 2.5-.4 4.3-.5 5.5-.2 2.2-.3 4.1-.4 5.8h-2.3c.6-4.4 1-9.1 1.3-14.3h3.2c2 4.6 3.5 8.5 4.6 11.7 1.5-4 3.2-7.9 4.9-11.7h3c0 4.2.3 8.9.7 14.3zm19.8 0h-2.6c-.1-3.8-.2-7.6-.4-11.3-1.7 3.7-3.3 7.5-4.7 11.3h-2.3c-1.4-3.9-2.8-7.7-4.4-11.3-.2 2.5-.4 4.3-.5 5.5-.2 2.2-.3 4.1-.4 5.8h-2.3c.6-4.4 1-9.1 1.3-14.3h3.2c2 4.6 3.5 8.5 4.6 11.7 1.5-4 3.2-7.9 4.9-11.7h3c-.1 4.2.1 8.9.6 14.3zm5.1-6.9c0 2.5 0 4.8.1 6.9H71c.1-2.1.1-4.4.1-6.9 0-2.7 0-5.1-.1-7.4h2.7c-.1 2.3-.2 4.8-.2 7.4zm12.1-6.9l-.7 1.8c-1-.5-2.1-.7-3.2-.7-.7 0-1.4.1-2 .5-.4.3-.7.8-.7 1.3 0 .4.1.9.4 1.2.5.5 1.2.9 1.9 1.1l1.4.6c.9.4 1.7.9 2.4 1.7.5.7.8 1.5.7 2.4 0 1.2-.5 2.3-1.5 3-1.1.8-2.4 1.2-3.7 1.2-1.6 0-3.2-.3-4.6-.9l.7-1.7c1.2.6 2.5.9 3.8.9.7 0 1.4-.2 2-.6.5-.3.7-.8.7-1.4 0-.5-.1-1-.5-1.4-.5-.5-1.1-.9-1.8-1.1l-1.7-.7c-1.7-.5-2.9-2.1-2.9-3.9 0-1.1.5-2.1 1.4-2.7 1.1-.8 2.4-1.2 3.7-1.1 1.5-.2 2.9 0 4.2.5zm11.7 0l-.7 1.8c-1-.5-2.1-.7-3.2-.7-.7 0-1.4.1-2 .5-.4.3-.7.8-.7 1.3 0 .4.1.9.4 1.2.5.5 1.2.9 1.9 1.1l1.4.6c.9.4 1.7.9 2.4 1.7.5.7.8 1.5.7 2.4 0 1.2-.5 2.3-1.5 3-1.1.8-2.4 1.2-3.7 1.2-1.6 0-3.2-.3-4.7-.9l.7-1.7c1.2.6 2.5.9 3.8.9.7 0 1.4-.2 2-.6.5-.3.7-.8.7-1.4 0-.5-.1-1-.5-1.4-.5-.5-1.1-.9-1.8-1.1l-1.5-.8c-1.7-.5-2.9-2.1-2.9-3.9 0-1.1.5-2.1 1.4-2.7 1.1-.8 2.4-1.2 3.7-1.1 1.4-.2 2.8.1 4.1.6zm5.3 6.9c0 2.5 0 4.8.1 6.9H100c.1-2.1.1-4.4.1-6.9 0-2.7 0-5.1-.1-7.4h2.7c0 2.3-.1 4.8-.1 7.4zm2.5 0c-.2-4 2.9-7.4 7-7.6h.6c2-.1 4 .6 5.5 2 1.4 1.4 2.2 3.3 2.1 5.2.1 2-.7 4-2.2 5.4-1.5 1.4-3.4 2.2-5.4 2.1-2 .1-4-.6-5.5-2-1.4-1.3-2.1-3.2-2.1-5.1zm12.4-.2c.1-1.4-.4-2.9-1.3-4-.9-1-2.1-1.6-3.5-1.5-1.3-.1-2.6.5-3.5 1.5-.9 1.1-1.4 2.6-1.3 4-.1 1.4.4 2.9 1.3 4 1.8 1.9 4.8 2 6.7.3l.3-.3c.9-1.2 1.3-2.6 1.3-4zm15.2 3.3c0-4.7 0-8.2-.1-10.5h2.4c-.1 2.3-.1 4.7-.1 7.4 0 2.5 0 4.8.1 6.9h-2.4c-3.3-4.9-5.8-8.7-7.7-11.3 0 5 0 8.8.1 11.3h-2.3c.1-2.1.1-4.4.1-6.9 0-2.7 0-5.1-.1-7.4h2.8c2.3 3.3 4.7 6.8 7.2 10.5z"/></svg>