<svg id="Layer_1" xmlns="http://www.w3.org/2000/svg" viewBox="0 0 361.9 42.4"><title>gamble-aware</title><path class="st0" d="M6.3 21c0 4.4 1.9 6.9 5.4 6.9 3.3 0 5.7-2.9 5.7-7.1 0-4-2.2-6.9-5.3-6.9-3.5 0-5.8 2.8-5.8 7.1zm11.1 8.2c-1.8 2.3-4.5 3.7-7.4 3.6-5.8 0-9.9-5-9.9-12s4.2-12 10.3-12c2.3 0 4.3.9 7 3.2V9.3h8.3v4.8h-2.2V33c0 5.9-4.4 9.4-11.8 9.4-3.6 0-6.4-.8-8.4-2.5-1.6-1.3-2.2-2.4-2.9-5.4h5.9c.8 2.2 2.4 3.2 5.3 3.2 3.5 0 5.8-1.8 5.8-4.6v-3.9zm25.3-6.9c-5.8.5-9.5 1.1-9.5 4.5 0 2 1.6 3.4 4 3.4 3 .1 5.4-2.2 5.5-5.2v-2.7zm5.8 6.8h2.1v4.8H43V31c-2.5 2.5-4.4 3.4-7.4 3.4-4.9 0-8.7-3.3-8.7-7.7 0-7.2 8.1-8 16-8.7 0-3.8-1-4.7-4.5-4.7-2.5 0-4.3 1.4-4.4 3.7l-6-.2c.3-4.9 4.2-8.1 10.1-8.1 6.8 0 10.5 3.1 10.5 8.7l-.1 11.7zm11.8-16.9c2.6-2.8 4.2-3.5 7-3.5s4.3 1 5.9 3.8c1.2-1.3 3.5-3.8 7.4-3.8s6.7 2.8 6.7 7v13.4h2.3v4.8h-8.3V17.4c0-2.2-1-3.4-2.6-3.4-2.5 0-4.9 3.2-4.9 6.7v8.5h2.4V34h-8.4V17.6c0-2.5-.8-3.7-2.6-3.7-2.7 0-5 3.3-4.9 7.2v8h2.4v4.8H52.3v-4.8h2.1v-15h-2.1V9.3h8.1l-.1 2.9zm39 9.5c0 5 2.1 7.7 5.9 7.7 3.4 0 5.6-3.1 5.6-7.9s-2.1-7.9-5.6-7.9c-3.7.1-5.9 3-5.9 8.1zM91.1 0h8.4v12c2.4-2.5 4.4-3.4 7-3.4 6.2 0 10.6 5.3 10.6 12.7 0 7.9-4.1 13.2-10.3 13.2-3 0-4.8-.7-7.6-3.3v2.7h-8.3v-4.8h2.6V4.8h-2.3V0h-.1zm27.3 0h8.4v29.1h2.3v4.8h-10.7v-4.8h2.4V4.8h-2.4V0zm28.7 18.6c-.4-3.1-2.3-4.8-5.2-4.8-2.7 0-4.7 1.8-5.5 4.8h10.7zm6.3 7.2c-1.1 5.3-5.6 8.6-11.5 8.6-6.9 0-11.9-5.4-11.9-12.9s5.1-13 12-13c3.8-.1 7.4 1.8 9.5 5 1.7 2.8 2.5 6 2.4 9.2h-17.8c.6 6.4 4.8 6.7 5.9 6.7 2.4 0 4-1.1 5-3.7l6.4.1zm18.2-4.4l-2.2.3c-4.5.7-6.4 1.3-7.6 2.6-.6.6-1 1.5-1.1 2.3 0 2.3 1.9 4.2 4.2 4.2 3.4 0 6.6-3 6.6-6.1l.1-3.3zm0 9.2c-2.2 2-4.3 3.9-8.3 3.9-4.6 0-8-3.1-8-7.4 0-1.8.6-3.5 1.8-4.8 1.9-1.9 4.6-2.8 11.2-3.5l3.2-.4v-1.6c0-2.9-1.8-4.4-5.2-4.4-3.1 0-4.5 1.1-5.1 4.1h-5.1c.4-2.6 1-3.9 2.4-5.2 1.9-1.7 4.6-2.6 8.1-2.6 6.1 0 9.7 3 9.7 8.2V30h2.9v3.9h-7.7l.1-3.3zm7.3-21.4h9.5v3.9h-2.8l4.1 16.7 4.7-20.6h4.7l4.7 20.6 4-16.7h-2.7V9.2h9.3v3.9h-2.3l-5.7 20.8h-5.2l-4.5-18.5-4.4 18.5h-5.2l-5.8-20.8h-2.4V9.2zm52.8 12.2l-2.2.3c-4.5.7-6.4 1.3-7.6 2.6-.6.6-1 1.5-1.1 2.3 0 2.3 1.9 4.2 4.3 4.2 3.4 0 6.6-3 6.6-6.1v-3.3zm0 9.2c-2.2 2-4.3 3.9-8.3 3.9-4.6 0-8-3.1-8-7.4 0-1.8.6-3.5 1.8-4.8 1.9-1.9 4.6-2.8 11.2-3.5l3.2-.4v-1.6c0-2.9-1.8-4.4-5.2-4.4-3.1 0-4.5 1.1-5.1 4.1h-5.1c.4-2.6 1-3.9 2.4-5.2 1.9-1.7 4.6-2.6 8.1-2.6 6.1 0 9.7 3 9.7 8.2V30h2.9v3.9h-7.7l.1-3.3zm17-15.9c1.3-2.9 2.9-6.1 7.2-6.1.8 0 1.6.1 2.3.3v4.6c-.8-.2-1.6-.3-2.4-.4-5.5 0-7.1 5.5-7.1 7.3V30h2.8v3.9H241V30h2.9V13.1h-2.8V9.2h7.6v5.5zm27.3 4.4c-.2-4.1-2.2-6.3-5.6-6.3-5.1 0-6.6 5.6-6.6 6.3H276zm5 7.2c-1 2.5-3.5 8.1-10.6 8.1s-11.7-5.3-11.7-13.1c0-7.3 5-12.6 11.9-12.6 4 0 10.9 2.2 10.9 13.9h-17.7c.2 5.6 3.7 7.8 7 7.8 2.6 0 4.1-1.2 5-4l5.2-.1zm2.5 3.7h4v3.9h-4V30zm21.3-1.5c-.6 3.4-3.6 5.9-7.1 5.8-4.2 0-7.2-3.2-7.2-7.8s2.8-7.7 6.8-7.7c1.6 0 3.2.7 4.2 2v-1.6h3.1v5.4h-3.2c-.3-.8-.8-1.6-1.4-2.1-.6-.5-1.3-.7-2.1-.7-2.1 0-3.5 1.8-3.5 4.5 0 3 1.4 4.9 3.6 4.9 1.6 0 3-1.1 3.3-2.6l3.5-.1zm5.6-2c0 2.8 1.4 4.6 3.5 4.6s3.5-1.8 3.5-4.6c0-2.6-1.5-4.5-3.5-4.5s-3.5 1.8-3.5 4.5zm10.8 0c0 4.4-3.1 7.8-7.2 7.8s-7.4-3.3-7.4-7.8c-.2-4.1 3-7.6 7.1-7.8h.3c4.1.2 7.3 3.6 7.2 7.8zm2.2 3.5h4v3.9h-4V30zm6.7-10.8h5v9.5c0 1.7.7 2.6 2.1 2.6 1.8 0 3.4-1.9 3.4-3.9V22h-1.4v-2.9h5V31h1.4v2.9h-4.9v-1.8c-1.3 1.1-2.6 2.2-4.8 2.2-2.8 0-4.4-1.7-4.4-4.8v-7.4H330l.1-2.9zm17.1-5.6h4.9v10.7l5.4-5.1h3.2v2.9h-1.5l-2.6 2.2 4.1 6.8h1.2v2.8h-3.4l-4.3-7.2-2.1 1.7v2.7h1.5v2.8h-6.2v-2.8h1.1V16.5h-1.3v-2.9z"/></svg>