<svg id="Layer_1" xmlns="http://www.w3.org/2000/svg" viewBox="0 0 411.9 456.8"><title>gamcare-logo</title><path class="st0" d="M191.1 0v59.3l7.9-.4c20.2-1.2 40.5-.5 60.6 2.1 21.2 2.9 41.9 8.7 61.4 17.4 5.6 2.5 11.3 4.8 17 7.3 3 1.3 5.7 3.2 8 5.6 5 5.2 3.9 12-2.5 15.4-3.1 1.6-6.5 2.5-9.9 2.6-7 .5-13.8-.4-19.9-4.1-14.4-8.6-30-13.8-46.2-17.6-20.6-4.8-41.7-6.8-62.9-5.8-4.4.2-8.8.6-13.1.9-.6 1.9-.8 186.5-.3 190.9 1.2.1 2.6.3 3.9.4 17.2 1.4 34.4 1 51.5-1.2 14.2-1.8 28.2-5 41.7-9.7 10.8-3.7 21-8.8 30.4-15.2.7-.5 1.3-1 2-1.5l-.1-.5c-2.5-.1-5-.4-7.5-.4-5.4.1-10.7.3-16.1.6-7.8.4-15.6 1-23.5.3-5.4-.5-10.7-1.5-15.1-4.9-1.8-1.3-3.3-3-4.6-4.8-3.7-5.3-2.5-12.6 2.8-16.3l.2-.2c3.5-2.5 7.6-3.7 11.8-4.4 8.2-1.4 16.6-1.8 24.9-1.3 26.9 1.2 53.7.9 80.6.4 6.6-.3 13.1.2 19.6 1.3 2.5.5 5 1.2 7.3 2.2 6.8 2.8 11.5 8.8 9.8 17.7-.9 4.5-2.1 8.9-3.3 13.3-4.6 16.9-9.3 33.9-14 50.9-1.1 4-1.9 8.1-2.9 12.1-2.2 8.9-8.4 13.3-17 14.6-8.5 1.4-17.3-.5-24.5-5.3-1.7-1.2-3.3-2.5-4.6-4.1-3.2-3.5-4.4-8.4-3.1-13 1.3-5.4 3.1-10.7 4.8-16.1 1.1-3.5 2.4-7 3.5-10.5.2-.7.4-1.5.6-2.6-49.7 28.3-103 37.5-159.2 33.4v51c-.7.1-1.2.2-1.8.3H35.2c-5.5.1-10.9-1-15.8-3.4-10.7-5.4-17-14-19.1-25.7-.2-1.3-.2-2.5-.2-3.8v-294C.2 19.9 10 3.6 28.4.4 30.2.1 32 0 33.9 0h157.2zm-.3 273.7c-1.1-.2-2-.3-3-.4-13.4-1.5-26.5-4.3-39.3-8.5-17.9-5.9-34.4-14.2-49.1-26-8.1-6.4-15.3-14-21.1-22.5-10-15-13.7-31.3-10.9-49.1 2.1-13.4 8.1-25 17-35.2 11.5-13 25.6-23.6 41.3-31.1 17.7-8.6 36.4-13.8 55.8-16.9 3.1-.5 6.2-.9 9.2-1.3.5-2.9.4-21.3-.2-23.1-.8 0-1.6 0-2.3.1-7.1.9-14.3 1.6-21.4 2.7-20.3 3-40.2 8.6-59.1 16.7-24.1 10.4-45.1 25-62.2 45-12.8 14.9-20.3 32.1-22 51.7-1.9 20.1 3.2 40.3 14.4 57.1 8.9 13.5 20.2 25.3 33.4 34.8 17.8 13.1 37.7 22.2 58.7 28.9 16.9 5.3 34.4 9 52 11 2.9.3 5.8.6 8.9.9l-.1-34.8zm164.9 160.1l15.1 21.3c-2 .6-13.2.7-19 .3l-11.5-19.3-.5.1v19.1h-15.3c-.5-1.8-.7-60.1-.2-63.4.6-.1 1.2-.2 1.8-.2h21.1c2.1 0 4.2.2 6.2.5 8.1 1.1 14.6 7.3 16 15.4 1 4.5.7 9.1-.7 13.5-1.7 5.4-5.7 9.7-10.9 11.8l-2.1.9zm-15.9-12.7c3.5 0 6.8.3 10-1s4.4-3.4 4.3-7c-.1-3.4-1.5-5.5-4.7-6.4s-6.3-.8-9.6-.6v15zm-76.6-5.1h-6.5c-2.6 0-5.3-.1-7.9 0-1.4.2-2.8-.5-3.5-1.8-2-3.5-5.3-6.1-9.2-7.2-8.9-2.5-18.2 2.6-20.7 11.5-.8 2.6-.8 5.4-.3 8.1 1.6 7.5 7 13 14.2 14.1 6.1.9 10.9-1.5 14.8-6.1.5-.6.9-1.4 1.4-1.9.4-.5.9-.8 1.6-.9 5.2-.1 10.4 0 15.6 0 .1.3.1.6.1.9-3.9 12.5-11.8 21.1-25 23.4-22.3 4-36-11.8-38.6-26.3-2.9-15.9 5.3-31.4 20.1-37.1 17.3-6.6 37.3 1.2 43.6 21.7.1.4.1.8.3 1.6zm-127.8 39.4h-8.8v-63.5h13.6c6.1 16 12.1 32.3 18.2 48.4l.5-.1 18.1-48.4h13.5v63.5h-8.1l-.1-.1c-.1-.1-.1-.1-.1-.2-.1-.3-.1-.6-.1-1 .2-17.4.4-34.7.5-52.2-1 .5-1.1 1.4-1.3 2.2-5.3 14.1-10.6 28.3-15.9 42.4-1.1 3-2.2 6-3.4 9h-6.7l-20-53.6-.5.1.6 53.5zm149-63.6h12.8l24.4 63.5h-17.2l-3.1-8.9h-21l-3.2 9h-17l24.3-63.6zm12.6 41.1l-6-19.3h-.5c-1.9 6.4-4.1 12.7-5.9 19.3H297zm96.1-2.6v11.1h18.8V455c-1.7.6-29.6.8-34.2.3-.5-1.9-.6-61.3 0-63.5h34.1v13.9c-6.2.4-12.4 0-18.7.2V416h18.8v14.2l-18.8.1zm-332-22.4c-3.8 0-7.1.1-10.5-.1-.8-.2-1.4-.6-1.9-1.2-7-7.9-19.2-8.9-27.5-3.8-6.9 4.1-11.3 11.4-11.5 19.4-.6 10.3 4.6 19.1 13.5 23.2 9.5 4.5 20.8 1.7 27.1-6.7 1.1-1.5 2.1-3 3-4.6.3-.6.6-1.2.8-1.9H25.7v-8.8H65c-.2 1.5-.2 2.9-.4 4.3-1.3 9-5 16.9-12.4 22.5-17.3 13.2-45.8 6.2-51.2-19.5-2.9-13.9 1.5-25.6 12.9-34.3 4-3 8.7-4.9 13.6-5.5 9.5-1.2 18.4.2 26 6.5 3.3 2.9 5.9 6.5 7.6 10.5zm26.5-16.1h9l24.9 63.6c-3.6.1-6.8.1-10.1.1l-7-18.4H79.7l-7.1 18.3h-9.8l24.8-63.6zm13.4 36l-8.6-23.3h-.5l-8.8 23.3H101z"/></svg>