<svg id="Layer_1" xmlns="http://www.w3.org/2000/svg" viewBox="0 0 29.4 20.6"><title>Inbox</title><g id="Page-1"><g id="Home-Page-Copy-33" transform="translate(-118 -333)"><g id="Group-19" transform="translate(-2 -1)"><path id="Fill-1" class="st0" d="M145.9 351.2c0 .1-.1.1-.1.2-2.6-2-5.2-4-7.8-6.1-.5.4-.9.8-1.4 1.3-1.2 1.1-2.3 1.1-3.6.1-.4-.3-.8-.6-1.2-1-2.9 2-5.8 3.9-8.6 5.9l-.1-.1c2.5-2.3 5-4.5 7.5-6.8-2.7-2.6-5.4-5.3-8.1-7.9l.2-.2c1.5 1.2 3 2.3 4.5 3.5 2.2 1.7 4.3 3.5 6.5 5.3 1 .9 1.2.8 2.3 0 3.3-2.8 6.7-5.5 10-8.3.2-.1.4-.3.6-.4 0 .1.1.1.1.2-2.4 2.5-4.9 5-7.3 7.5 2 2.1 4.2 4.4 6.5 6.8m-.2-17.2h-22c-2 0-3.7 1.6-3.7 3.7V351c0 2 1.6 3.7 3.7 3.7h22c2 0 3.7-1.6 3.7-3.7v-13.3c0-2.1-1.7-3.7-3.7-3.7"/></g></g></g></svg>