<?xml version="1.0" encoding="UTF-8"?>
<!DOCTYPE svg  PUBLIC '-//W3C//DTD SVG 1.1//EN'  'http://www.w3.org/Graphics/SVG/1.1/DTD/svg11.dtd'>
<svg width="100px" height="100px" enable-background="new -41.5 -41.5 100 100" version="1.1" viewBox="-41.5 -41.5 100 100" xml:space="preserve" xmlns="http://www.w3.org/2000/svg">
<path d="m53.419-3.268l-25.581-3.71-11.424-23.045c-1.369-2.784-4.693-3.861-7.496-2.493-1.054 0.538-1.979 1.417-2.516 2.493l-11.425 23.045-25.491 3.71c-3.028 0.439-5.174 3.27-4.735 6.3 0.194 1.22 0.734 2.343 1.659 3.221l18.458 17.875-4.392 25.386c-0.49 3.029 1.56 5.864 4.588 6.444 1.22 0.196 2.442 1e-3 3.563-0.584l22.806-12.009 22.852 12.009c2.733 1.462 6.147 0.39 7.521-2.345 0.584-1.074 0.779-2.341 0.584-3.516l-4.392-25.386 18.545-17.874c2.154-2.148 2.247-5.665 0.1-7.908-0.88-0.879-2.048-1.418-3.224-1.613z" fill="#FFBF00"/>
<path d="m50.488-6.198l-25.581-3.71-11.425-23.046c-1.367-2.784-4.737-3.906-7.474-2.538-1.12 0.583-2 1.462-2.537 2.538l-11.425 23.046-25.491 3.71c-3.072 0.439-5.174 3.226-4.735 6.3 0.194 1.22 0.734 2.343 1.614 3.221l18.502 17.875-4.392 25.386c-0.49 3.029 1.561 5.864 4.588 6.444 1.22 0.196 2.442 1e-3 3.518-0.584l22.85-12.008 22.852 12.008c2.733 1.373 6.148 0.39 7.52-2.345 0.586-1.075 0.781-2.341 0.586-3.516l-4.393-25.386 18.458-17.874c2.242-2.148 2.336-5.709 0.189-7.908-0.88-0.879-2.048-1.419-3.224-1.613z" fill="#FFE100"/>
<path d="m37.602-1.363c-5.956-0.977-11.819-1.954-17.772-2.883-2.643-5.37-5.375-10.788-8.008-16.16-0.974-1.953-3.175-2.734-4.984-1.758-0.731 0.39-1.319 1.023-1.707 1.758-2.589 5.372-5.321 10.79-8.009 16.16-5.906 0.929-11.815 1.906-17.77 2.883-2.101 0.342-3.617 2.247-3.371 4.295 0.1 0.783 0.488 1.517 1.122 2.101 4.203 3.954 8.548 8.055 12.894 12.162-0.882 5.852-1.71 11.614-2.345 17.282-0.197 2.052 1.271 4.102 3.319 4.589 0.784 0.193 1.612 0.097 2.298-0.292 4.932-2.538 10.01-5.181 15.231-8.007 5.176 2.828 10.255 5.47 15.232 8.007 1.668 0.881 4.006 0.095 5.081-1.856 0.394-0.779 0.588-1.656 0.491-2.44-0.59-5.669-1.463-11.429-2.346-17.282 4.391-4.107 8.692-8.208 12.895-12.162 1.559-1.416 1.557-3.759-2e-3 -5.272-0.591-0.587-1.372-0.98-2.249-1.125z" fill="#FFB429"/>
<path d="m-7.662 37.404c-0.438-0.1-0.779-0.584-0.732-0.979 0.391-5.854 1.075-11.713 1.952-17.574 0.147-0.98-0.242-2.051-0.977-2.738-4.492-4.294-8.981-8.445-13.231-12.3-0.292-0.831 0.05-1.222 0.488-1.318 6.104-1.027 12.207-2.099 18.263-3.077 1.025-0.148 1.951-0.83 2.393-1.758 2.831-5.518 5.613-11.085 8.154-16.602 0.243-0.147 0.456-0.295 0.718-0.487 0.211 0 0.51 0.145 0.697 0.487 2.54 5.518 5.277 11.084 8.105 16.602 0.488 0.928 1.369 1.609 2.439 1.758 6.056 0.978 12.113 2.05 18.264 3.076 0.783 0.539 0.783 1.026 0.488 1.319-4.294 3.856-8.695 8.005-13.186 12.3-0.781 0.688-1.168 1.759-0.979 2.738 0.789 5.953 1.563 11.813 1.953 17.576-0.385 0.786-0.678 0.977-0.877 0.979-4.885-2.343-10.152-5.075-15.523-7.91-0.397-0.289-0.889-0.391-1.382-0.39-0.478 0-1.012 0.1-1.451 0.39-5.226 2.832-10.304 5.473-15.09 7.816-0.145 0.09-0.244 0.092-0.388 0.094-1e-3 -1e-3 -0.049-2e-3 -0.098-2e-3z" fill="#FFC317"/>
</svg>
