<?xml version="1.0" encoding="UTF-8"?>
<!DOCTYPE svg  PUBLIC '-//W3C//DTD SVG 1.1//EN'  'http://www.w3.org/Graphics/SVG/1.1/DTD/svg11.dtd'>
<svg width="100px" height="100px" enable-background="new -42 -42 100 100" version="1.1" viewBox="-42 -42 100 100" xml:space="preserve" xmlns="http://www.w3.org/2000/svg">
<path d="m-31.063-7.558l-1.37 0.058-0.873 1.02c0.549 4.257 1.135 8.493 1.718 12.692 1.563-0.226 1.895-0.974 1.599-2.344-0.192-0.873-0.424-2.186 0.04-2.637 0.842-0.882 2.112-1.508 3.342-1.718 0.577-0.137 1.462 0.836 2.051 1.48 0.525 0.562 1.038 0.849 1.587 0.787l-0.449-2.411c-2.539-2.319-5.062-4.632-7.645-6.927zm0.394 7.328c-0.293-1.7-0.525-3.263-0.818-5.276 1.404 1.324 2.637 2.398 3.943 3.613l-3.125 1.663zm34.256-21.72l-1.074-0.781-1.37 0.33c-2.051 3.771-3.998 7.556-5.948 11.334 1.379 0.681 2.142 0.293 2.667-0.989 0.357-0.812 0.937-2.044 1.525-2.136 1.267-0.195 2.637 0 3.711 0.543 0.589 0.238 0.781 1.508 0.876 2.381 0.183 1.214 0.65 1.886 1.996 1.739l0.241-0.507c-0.842-3.995-1.687-7.977-2.624-11.914zm-3.906 6.149c0.781-1.541 1.462-2.987 2.445-4.788 0.387 1.901 0.68 3.464 1.068 5.276l-3.513-0.488z" fill="#040310"/>
<path d="m52.702-10.207c-4.163-1.993-8.313-3.967-12.457-5.951-0.3-0.979-0.849-1.779-1.569-2.454 0.36 0.586 0.58 1.27 0.672 2.029-3.65-1.742-7.313-3.5-10.962-5.237-2.552-1.211-5.103-2.444-7.66-3.656-1.013-0.5-2.038-0.751-3.033-0.751-0.671 0-1.294 0.138-1.898 0.357-1.025 0.36-1.946 1.025-2.704 1.962-0.329 0.424-0.652 0.888-0.921 1.425l-5.958 12.447-0.241 0.507-16.638 34.766c-1.807 3.735-0.671 7.05 3.042 8.893l10.312 4.932-11.237-1.52c-3.519-0.5-5.176-2.734-4.688-6.25 2.344-17.492 4.724-34.985 7.068-52.466 0.159-1.086 0.601-1.938 1.157-2.667-0.625 0.524-1.163 1.153-1.544 1.935-0.33 0.671-0.574 1.428-0.687 2.252l-1.812 13.396-0.031 0.269-5.237 38.788c-0.281 2.087 0.073 3.809 1.074 5.121 0.989 1.293 2.518 2.093 4.563 2.367l9.613 1.301-9.195 1.703c-3.494 0.695-5.798-0.867-6.417-4.377-3.281-17.383-6.507-34.741-9.769-52.081-0.427-2.276 0.354-4.145 1.981-5.246-1.712 0.913-2.792 2.438-3.049 4.355-0.101 0.732-0.134 1.496 0.024 2.313l2.081 11.115 0.455 2.417 7.232 38.586c0.65 3.473 2.851 5.457 6.042 5.457 0.525 0 1.083-0.056 1.663-0.172l9.442-1.764-7.8 4.096c-3.131 1.672-5.829 0.781-7.486-2.344-8.206-15.625-16.442-31.25-24.643-46.851-0.556-1.025-0.696-2.021-0.638-2.979-0.024 0.083-0.101 0.141-0.125 0.226-0.494 1.563-0.281 3.271 0.598 4.926l24.665 46.863c1.636 3.106 3.87 3.76 5.462 3.76 1.111 0 2.283-0.324 3.473-0.946l14.944-7.831 0.876 0.122 13.169 6.299c1.141 0.537 2.24 0.806 3.277 0.806 2.355 0 4.321-1.392 5.529-3.906l16.139-33.624c2.27-4.725 4.553-9.448 6.787-14.185 1.636-3.47 0.453-6.888-2.941-8.533zm1.953 7.202c-3.796 8.029-7.702 16.022-11.523 24.036-3.796 7.928-7.617 15.82-11.413 23.742-1.478 3.217-4.102 4.188-7.337 2.625l-31.525-15.125c-3.159-1.471-4.096-4.096-2.533-7.336 7.602-15.931 15.219-31.849 22.84-47.77 1.452-2.923 4.187-3.906 7.073-2.505 10.7 5.087 21.296 10.163 31.989 15.301 2.82 1.368 3.796 4.145 2.429 7.032z" fill="#CFCFCF"/>
<path d="m-9.688 45.83c-3.201 0-5.398-1.984-6.048-5.457l-7.233-38.586c-0.555 0.055-1.062-0.232-1.587-0.788-0.589-0.641-1.474-1.617-2.051-1.48-1.23 0.21-2.5 0.839-3.342 1.718-0.464 0.445-0.232 1.758-0.04 2.631 0.296 1.37-0.037 2.118-1.599 2.344-0.589-4.199-1.169-8.436-1.718-12.692l0.873-1.02 1.37-0.058c2.582 2.295 5.105 4.608 7.645 6.927l-2.081-11.115c-0.159-0.817-0.125-1.581-0.024-2.313-3.607 1.895-7.208 3.796-10.815 5.682-1.813 0.965-2.722 2.49-2.811 4.193-0.058 0.958 0.082 1.953 0.631 2.979 8.207 15.601 16.443 31.226 24.643 46.851 1.663 3.125 4.355 4.016 7.486 2.344l7.8-4.096-9.442 1.764c-0.573 0.116-1.132 0.172-1.657 0.172zm-20.981-46.06l3.125-1.663c-1.306-1.215-2.545-2.289-3.943-3.613 0.293 2.013 0.525 3.575 0.818 5.276zm13.437-9.671l3.506-0.678c-0.925-1.563-1.742-2.933-2.725-4.602-0.293 1.962-0.549 3.582-0.781 5.28zm6.57 35.143l16.639-34.765c-1.352 0.141-1.819-0.531-2.002-1.745-0.095-0.873-0.287-2.143-0.876-2.381-1.074-0.543-2.444-0.744-3.711-0.543-0.589 0.092-1.168 1.324-1.525 2.136-0.525 1.282-1.288 1.669-2.667 0.989 1.95-3.778 3.897-7.563 5.948-11.334l1.37-0.336 1.074 0.781c0.937 3.937 1.782 7.925 2.625 11.92l5.957-12.451c0.269-0.531 0.592-0.995 0.921-1.419 0.758-0.937 1.679-1.602 2.711-1.968-0.416-6e-3 -0.813-0.067-1.27 0.012-2.223 0.412-4.426 0.836-6.644 1.251-2.698-0.372-5.408-0.744-8.105-1.107-0.9-0.125-1.706-0.012-2.457 0.21-0.763 0.052-1.538 0.25-2.326 0.671-2.606 1.361-5.212 2.737-7.819 4.107-2.475 0.467-4.956 0.922-7.437 1.392-0.87 0.171-1.593 0.501-2.218 0.925-1.627 1.102-2.408 2.97-1.981 5.252 3.256 17.34 6.482 34.692 9.769 52.081 0.625 3.516 2.93 5.078 6.417 4.383l9.195-1.709-9.613-1.307c-2.044-0.274-3.574-1.074-4.563-2.367-0.995-1.313-1.355-3.034-1.074-5.121l5.237-38.788c-1.407 0.702-2.112 0.195-2.676-0.979-0.394-0.724-0.937-1.901-1.523-1.993-1.214-0.159-2.64 0.091-3.714 0.68-0.525 0.293-0.717 1.608-0.781 2.481-0.101 1.425-0.681 2.057-2.243 1.818 0.681-4.199 1.361-8.456 2.112-12.655l1.175-0.727 1.3 0.388c2.17 3.546 4.221 7.114 6.381 10.712l1.807-13.397c0.119-0.827 0.354-1.575 0.687-2.252 0.388-0.781 0.918-1.41 1.55-1.935-0.549 0.735-0.992 1.593-1.15 2.679-2.344 17.48-4.724 34.974-7.068 52.472-0.488 3.516 1.175 5.75 4.688 6.25l11.236 1.514-10.312-4.932c-3.721-1.843-4.85-5.163-3.044-8.893zm49.338-43.853c-0.756-1.239-2.014-2.094-3.747-2.319-2.191-0.299-4.37-0.595-6.543-0.894 3.649 1.743 7.312 3.494 10.962 5.237-0.092-0.755-0.312-1.438-0.672-2.024zm-38.995 2.81l3.513 0.488c-0.388-1.813-0.681-3.375-1.068-5.276-0.983 1.801-1.664 3.247-2.445 4.788zm52.546 5.765c-10.694-5.133-21.289-10.214-31.99-15.301-2.887-1.401-5.621-0.418-7.073 2.505-7.627 15.921-15.238 31.839-22.84 47.77-1.563 3.24-0.625 5.865 2.533 7.336l31.524 15.125c3.235 1.563 5.859 0.592 7.337-2.625 3.796-7.922 7.617-15.814 11.413-23.742 3.821-8.008 7.728-16.007 11.523-24.036 1.368-2.888 0.392-5.665-2.427-7.032zm-31.751-11.743l1.403 0.116 0.855 1.062c-0.391 4.206-0.781 8.408-1.185 12.653-1.745-0.195-2.051-1.068-1.745-2.384 0.085-0.836 0.396-2.13-0.11-2.536-0.866-0.836-2.148-1.471-3.32-1.617-0.671-0.104-1.563 0.86-2.148 1.529-0.915 1.096-1.758 1.254-2.819 0.125 3.014-2.97 6.054-5.994 9.069-8.948zm5.664 64.099c-0.586 0.5-1.05 1.086-1.647 1.471l-1.478 0.092-0.866-1.258c0.391-4.102 0.781-8.313 1.195-12.5 1.722 0.195 2.002 1.063 1.722 2.43-0.128 0.896-0.391 2.094 0 2.459 0.977 0.781 2.233 1.447 3.521 1.648 0.593 0.135 1.446-0.867 2.039-1.453 0.897-1.086 1.679-1.367 2.838-0.207-2.442 2.43-4.87 4.894-7.324 7.318zm9.961-30.164c-1.758 2.704-4.199 4.383-7.031 5.664-3.906 1.844-7.813 3.516-11.719 5.273-0.781 0.396-1.062 0.165-1.257-0.652-1.172-4.535-2.344-9.027-3.431-13.535-0.684-3.226-0.586-6.5 1.123-9.476 2.308-4.004 6.604-4.98 10.12-2.301 1.367 1.031 2.038 2.447 2.344 4.102 0.085 0.394 0.085 0.799 0.195 1.367 3.32-2.048 6.335-2.094 8.789-0.192 2.735 2.206 3.015 6.308 0.867 9.75zm-12.11 29.774c1.403-1.447 2.539-2.533 3.711-3.791l-3.125-1.477c-0.195 1.752-0.39 3.315-0.586 5.268zm-3.125-61.692c-1.452 1.425-2.539 2.591-3.796 3.806l3.21 1.52c0.196-1.807 0.391-3.413 0.586-5.326z" fill="#fff"/>
<path d="m-16.744-17.363l-1.169 0.727c-0.75 4.199-1.431 8.456-2.112 12.655 1.563 0.238 2.148-0.394 2.243-1.813 0.064-0.879 0.256-2.194 0.781-2.487 1.074-0.589 2.5-0.839 3.714-0.681 0.586 0.098 1.135 1.27 1.523 1.993 0.564 1.175 1.27 1.682 2.676 0.979l0.037-0.269c-2.167-3.604-4.217-7.172-6.387-10.718l-1.306-0.386zm-0.488 7.462c0.232-1.697 0.488-3.317 0.781-5.28 0.977 1.669 1.794 3.04 2.725 4.602l-3.506 0.678zm47.864 45.11c-0.586 0.586-1.452 1.588-2.038 1.447-1.282-0.195-2.539-0.867-3.516-1.648-0.397-0.366-0.135-1.563 0-2.459 0.28-1.367 0-2.229-1.728-2.43-0.421 4.188-0.812 8.398-1.202 12.5l0.866 1.258 1.478-0.086c0.609-0.396 1.062-0.977 1.647-1.477 2.46-2.43 4.883-4.89 7.343-7.337-1.177-1.141-1.959-0.86-2.85 0.232zm-6.641 6.721c0.195-1.953 0.396-3.516 0.586-5.273l3.125 1.477c-1.172 1.251-2.319 2.343-3.711 3.796zm11.243-39.524c-2.46-1.901-5.469-1.855-8.789 0.192-0.11-0.562-0.11-0.974-0.195-1.367-0.306-1.664-0.977-3.07-2.344-4.102-3.516-2.68-7.813-1.697-10.12 2.301-1.709 2.976-1.807 6.25-1.123 9.476 1.087 4.508 2.259 9 3.431 13.535 0.195 0.83 0.476 1.049 1.257 0.652 3.906-1.758 7.813-3.43 11.719-5.273 2.832-1.281 5.273-2.966 7.031-5.664 2.148-3.442 1.868-7.544-0.867-9.75zm-21.008-15.363c0.586-0.668 1.478-1.632 2.148-1.529 1.172 0.146 2.454 0.781 3.32 1.617 0.501 0.406 0.195 1.7 0.11 2.536-0.306 1.315 0 2.194 1.739 2.39 0.409-4.245 0.8-8.447 1.19-12.652l-0.855-1.063-1.403-0.122c-3.015 2.954-6.055 5.979-9.069 8.948 1.062 1.13 1.916 0.971 2.82-0.125zm6.64-6.805c-0.195 1.913-0.391 3.519-0.586 5.331l-3.21-1.525c1.257-1.215 2.344-2.381 3.796-3.806z" fill="#EB1D26"/>
</svg>
