<?xml version="1.0" encoding="UTF-8"?>
<!DOCTYPE svg  PUBLIC '-//W3C//DTD SVG 1.1//EN'  'http://www.w3.org/Graphics/SVG/1.1/DTD/svg11.dtd'>
<svg width="83.667px" height="208.33px" enable-background="new 0 0 83.667 208.333" version="1.1" viewBox="0 0 83.667 208.333" xml:space="preserve" xmlns="http://www.w3.org/2000/svg" xmlns:xlink="http://www.w3.org/1999/xlink">
	<g display="none">
		<defs>
			<rect id="b" x="-17.374" y="50.625" width="120" height="120"/>
		</defs>
		<clipPath id="a" display="inline">
			<use overflow="visible" xlink:href="#b"/>
		</clipPath>
		<g clip-path="url(#a)" display="inline">
			<g transform="translate(31 -9)">
				<g transform="translate(0 58)">
					<g transform="translate(-37 -333)">
							<linearGradient id="f" x1="-1941.5" x2="-1940.5" y1="2382.5" y2="2382.5" gradientTransform="matrix(26 0 0 -23 50498 55192)" gradientUnits="userSpaceOnUse">
							<stop stop-color="#FFD351" offset="0"/>
							<stop stop-color="#FDBE00" offset="1"/>
						</linearGradient>
						<ellipse cx="32.626" cy="395.12" rx="13" ry="11.5" fill="url(#f)"/>
					</g>
						<linearGradient id="j" x1="-1976.5" x2="-1976.5" y1="2049.3" y2="2048.3" gradientTransform="matrix(22.286 0 0 -19.55 44044 40116)" gradientUnits="userSpaceOnUse">
						<stop stop-color="#FFA300" offset="0"/>
						<stop stop-color="#F5BB00" offset="1"/>
					</linearGradient>
					<ellipse cx="-4.374" cy="61.933" rx="11.143" ry="9.774" fill="url(#j)"/>
				</g>
				<g transform="translate(33 40)">
					<g transform="translate(-70 -315)">
							<linearGradient id="e" x1="-1941.5" x2="-1940.5" y1="2382.5" y2="2382.5" gradientTransform="matrix(26 0 0 -23 50531 55174)" gradientUnits="userSpaceOnUse">
							<stop stop-color="#FFD351" offset="0"/>
							<stop stop-color="#FDBE00" offset="1"/>
						</linearGradient>
						<ellipse cx="65.626" cy="377.12" rx="13" ry="11.5" fill="url(#e)"/>
					</g>
						<linearGradient id="p" x1="-2009.5" x2="-2009.5" y1="2067.3" y2="2066.3" gradientTransform="matrix(22.286 0 0 -19.55 44779 40468)" gradientUnits="userSpaceOnUse">
						<stop stop-color="#FFA300" offset="0"/>
						<stop stop-color="#F5BB00" offset="1"/>
					</linearGradient>
					<ellipse cx="-4.374" cy="61.933" rx="11.143" ry="9.774" fill="url(#p)"/>
				</g>
				<g transform="translate(0 18)">
					<g transform="translate(-37 -293)">
							<linearGradient id="d" x1="-1941.5" x2="-1940.5" y1="2382.5" y2="2382.5" gradientTransform="matrix(26 0 0 -23 50498 55152)" gradientUnits="userSpaceOnUse">
							<stop stop-color="#FFD351" offset="0"/>
							<stop stop-color="#FDBE00" offset="1"/>
						</linearGradient>
						<ellipse cx="32.626" cy="355.12" rx="13" ry="11.5" fill="url(#d)"/>
					</g>
						<linearGradient id="o" x1="-1976.5" x2="-1976.5" y1="2089.3" y2="2088.3" gradientTransform="matrix(22.286 0 0 -19.55 44044 40898)" gradientUnits="userSpaceOnUse">
						<stop stop-color="#FFA300" offset="0"/>
						<stop stop-color="#F5BB00" offset="1"/>
					</linearGradient>
					<ellipse cx="-4.374" cy="61.933" rx="11.143" ry="9.774" fill="url(#o)"/>
				</g>
				<g transform="translate(33)">
					<g transform="translate(-70 -275)">
							<linearGradient id="i" x1="-1941.5" x2="-1940.5" y1="2382.5" y2="2382.5" gradientTransform="matrix(26 0 0 -23 50531 55134)" gradientUnits="userSpaceOnUse">
							<stop stop-color="#FFD351" offset="0"/>
							<stop stop-color="#FDBE00" offset="1"/>
						</linearGradient>
						<ellipse cx="65.626" cy="337.12" rx="13" ry="11.5" fill="url(#i)"/>
					</g>
						<linearGradient id="n" x1="-2009.5" x2="-2009.5" y1="2107.3" y2="2106.3" gradientTransform="matrix(22.286 0 0 -19.55 44779 41250)" gradientUnits="userSpaceOnUse">
						<stop stop-color="#FFA300" offset="0"/>
						<stop stop-color="#F5BB00" offset="1"/>
					</linearGradient>
					<ellipse cx="-4.374" cy="61.933" rx="11.143" ry="9.774" fill="url(#n)"/>
				</g>
				<g transform="translate(33 78)">
					<g transform="translate(-70 -353)">
							<linearGradient id="h" x1="-1941.5" x2="-1940.5" y1="2382.5" y2="2382.5" gradientTransform="matrix(26 0 0 -23 50531 55212)" gradientUnits="userSpaceOnUse">
							<stop stop-color="#FFD351" offset="0"/>
							<stop stop-color="#FDBE00" offset="1"/>
						</linearGradient>
						<ellipse cx="65.626" cy="415.12" rx="13" ry="11.5" fill="url(#h)"/>
					</g>
						<linearGradient id="m" x1="-2009.5" x2="-2009.5" y1="2029.3" y2="2028.3" gradientTransform="matrix(22.286 0 0 -19.55 44779 39725)" gradientUnits="userSpaceOnUse">
						<stop stop-color="#FFA300" offset="0"/>
						<stop stop-color="#F5BB00" offset="1"/>
					</linearGradient>
					<ellipse cx="-4.374" cy="61.933" rx="11.143" ry="9.774" fill="url(#m)"/>
				</g>
				<g transform="translate(33 116)">
					<g transform="translate(-70 -391)">
							<linearGradient id="g" x1="-1941.5" x2="-1940.5" y1="2382.5" y2="2382.5" gradientTransform="matrix(26 0 0 -23 50531 55250)" gradientUnits="userSpaceOnUse">
							<stop stop-color="#FFD351" offset="0"/>
							<stop stop-color="#FDBE00" offset="1"/>
						</linearGradient>
						<ellipse cx="65.626" cy="453.12" rx="13" ry="11.5" fill="url(#g)"/>
					</g>
						<linearGradient id="l" x1="-2009.5" x2="-2009.5" y1="1991.3" y2="1990.3" gradientTransform="matrix(22.286 0 0 -19.55 44779 38982)" gradientUnits="userSpaceOnUse">
						<stop stop-color="#FFA300" offset="0"/>
						<stop stop-color="#F5BB00" offset="1"/>
					</linearGradient>
					<ellipse cx="-4.374" cy="61.933" rx="11.143" ry="9.774" fill="url(#l)"/>
				</g>
				<g transform="translate(0 96)">
					<ellipse cx="-4.374" cy="64.125" rx="13" ry="11.5" fill="#D78003"/>
						<linearGradient id="c" x1="-1978.5" x2="-1977.5" y1="2011.5" y2="2011.5" gradientTransform="matrix(26 0 0 -23 51423 46326)" gradientUnits="userSpaceOnUse">
						<stop stop-color="#FFD351" offset="0"/>
						<stop stop-color="#FDBE00" offset="1"/>
					</linearGradient>
					<ellipse cx="-4.374" cy="62.125" rx="13" ry="11.5" fill="url(#c)"/>
						<linearGradient id="k" x1="-1976.5" x2="-1976.5" y1="2011.3" y2="2010.3" gradientTransform="matrix(22.286 0 0 -19.55 44044 39373)" gradientUnits="userSpaceOnUse">
						<stop stop-color="#FFA300" offset="0"/>
						<stop stop-color="#F5BB00" offset="1"/>
					</linearGradient>
					<ellipse cx="-4.374" cy="61.933" rx="11.143" ry="9.774" fill="url(#k)"/>
				</g>
			</g>
		</g>
	</g>
	<g transform="translate(0 96)">
					<path d="m76.292-80.875c0-6.352-5.82-11.5-13-11.5-7.181 0-13.001 5.148-13.001 11.5v3c0 6.352 5.82 11.5 13.001 11.5 7.18 0 13-5.148 13-11.5v-3z" fill="#D78003"/>
						<path d="m63.292-69.375c-7.181 0-13.001-5.148-13.001-11.5v3c0 6.352 5.82 11.5 13.001 11.5 7.18 0 13-5.148 13-11.5v-3c0 6.352-5.82 11.5-13 11.5z" fill="#D78003"/>
					<path d="m70.417-69.431c0.371-0.242 0.725-0.504 1.063-0.779v-0.539c-0.342 0.221-0.699 0.426-1.063 0.619v0.699zm-2.937 1.381c0.363-0.119 0.715-0.258 1.063-0.406v-0.844c-0.35 0.127-0.701 0.248-1.063 0.35v0.9zm-2.938 0.603c0.359-0.033 0.711-0.086 1.063-0.146v-0.969c-0.352 0.053-0.703 0.1-1.063 0.129v0.986zm-8.813-2.306c0.34 0.244 0.693 0.469 1.063 0.678v-0.744c-0.365-0.172-0.717-0.359-1.063-0.557v0.623zm-1.875-1.664v-0.25c-0.238-0.195-0.479-0.387-0.701-0.596 0.215 0.295 0.455 0.572 0.701 0.846zm4.813 3.224c0.346 0.127 0.703 0.229 1.063 0.326v-0.936c-0.359-0.084-0.715-0.178-1.063-0.287v0.897zm2.937 0.709c0.348 0.043 0.705 0.057 1.063 0.074v-0.994c-0.358-0.014-0.714-0.033-1.063-0.07v0.99z" fill="#FEC929"/>
					<ellipse cx="63.292" cy="-80.875" rx="13" ry="11.5" fill="#FEC929"/>
					<ellipse cx="63.292" cy="-81.067" rx="11.143" ry="9.774" fill="#F9B000"/>
					<path d="m63.292-73.292c-3.856 0-7.325-1.188-9.776-3.08 1.895 3.027 5.561 5.08 9.776 5.08s7.879-2.053 9.773-5.08c-2.45 1.892-5.917 3.08-9.773 3.08z" fill="#F9B000"/>
					<path d="m63.292-86.917c5.121 0 9.469 2.701 11.107 6.473 0.014-0.207 0.035-0.412 0.035-0.621 0-5.4-4.988-9.775-11.143-9.775s-11.146 4.375-11.146 9.775c0 0.209 0.021 0.414 0.037 0.621 1.639-3.772 5.988-6.473 11.11-6.473z" fill="#FFA300"/>
							<path d="m59.576-77.839l0.308-0.271s-3.701-2.441-3.787-5.336c-0.102 2.462 2.285 4.664 3.479 5.607zm10.646-3.453c-0.881-0.707-1.664-1.135-1.664-1.135s0.521-2.094-0.521-2.875c-0.727-0.549-2.889-3.176-5.892-3.176-0.73 0-1.512 0.164-2.333 0.543 0.638-0.25 1.247-0.357 1.821-0.357 2.749 0 4.728 2.404 5.394 2.906 0.955 0.715 0.477 2.633 0.477 2.633s0.717 0.391 1.523 1.037c0.816 0.648-0.609 1.203-0.609 1.203l-0.279 1.627s0.75 1.133-1.623 1.949c-2.381 0.811-1.689 2.592-1.549 3.441-0.18 0.025-0.348 0.037-0.502 0.037-1.42 0-1.874-0.988-2.876-1.664-0.668-0.452-1.931-0.761-2.826-0.936l-0.861 0.76s2.988 0.391 4.195 1.209c1.095 0.738 1.591 1.818 3.142 1.818 0.17 0 0.352-0.014 0.549-0.041-0.154-0.93-0.91-2.875 1.691-3.76 2.592-0.893 1.773-2.131 1.773-2.131l0.305-1.775c-1e-3 1e-3 1.558-0.604 0.665-1.313z" fill="#FEC929"/>
					<path d="m76.292-42.875c0-6.352-5.82-11.5-13-11.5-7.181 0-13.001 5.148-13.001 11.5v3c0 6.352 5.82 11.5 13.001 11.5 7.18 0 13-5.148 13-11.5v-3z" fill="#D78003"/>
						<path d="m63.292-31.375c-7.181 0-13.001-5.148-13.001-11.5v3c0 6.352 5.82 11.5 13.001 11.5 7.18 0 13-5.148 13-11.5v-3c0 6.352-5.82 11.5-13 11.5z" fill="#D78003"/>
					<path d="m70.417-31.431c0.371-0.242 0.725-0.504 1.063-0.779v-0.539c-0.342 0.221-0.699 0.426-1.063 0.619v0.699zm-2.937 1.381c0.363-0.119 0.715-0.258 1.063-0.406v-0.844c-0.35 0.127-0.701 0.248-1.063 0.35v0.9zm-2.938 0.603c0.359-0.033 0.711-0.086 1.063-0.146v-0.969c-0.352 0.053-0.703 0.1-1.063 0.129v0.986zm-8.813-2.306c0.34 0.244 0.693 0.469 1.063 0.678v-0.744c-0.365-0.172-0.717-0.359-1.063-0.557v0.623zm-1.875-1.664v-0.25c-0.238-0.195-0.479-0.387-0.701-0.596 0.215 0.295 0.455 0.572 0.701 0.846zm4.813 3.224c0.346 0.127 0.703 0.229 1.063 0.326v-0.936c-0.359-0.084-0.715-0.178-1.063-0.287v0.897zm2.937 0.709c0.348 0.043 0.705 0.057 1.063 0.074v-0.994c-0.358-0.014-0.714-0.033-1.063-0.07v0.99z" fill="#FEC929"/>
					<ellipse cx="63.292" cy="-42.875" rx="13" ry="11.5" fill="#FEC929"/>
					<ellipse cx="63.292" cy="-43.067" rx="11.143" ry="9.774" fill="#F9B000"/>
					<path d="m63.292-35.292c-3.856 0-7.325-1.188-9.776-3.08 1.895 3.027 5.561 5.08 9.776 5.08s7.879-2.053 9.773-5.08c-2.45 1.892-5.917 3.08-9.773 3.08z" fill="#F9B000"/>
					<path d="m63.292-48.917c5.121 0 9.469 2.701 11.107 6.473 0.014-0.207 0.035-0.412 0.035-0.621 0-5.4-4.988-9.775-11.143-9.775s-11.146 4.375-11.146 9.775c0 0.209 0.021 0.414 0.037 0.621 1.639-3.772 5.988-6.473 11.11-6.473z" fill="#FFA300"/>
							<path d="m59.576-39.839l0.308-0.271s-3.701-2.441-3.787-5.336c-0.102 2.462 2.285 4.664 3.479 5.607zm10.646-3.453c-0.881-0.707-1.664-1.135-1.664-1.135s0.521-2.094-0.521-2.875c-0.727-0.549-2.889-3.176-5.892-3.176-0.73 0-1.512 0.164-2.333 0.543 0.638-0.25 1.247-0.357 1.821-0.357 2.749 0 4.728 2.404 5.394 2.906 0.955 0.715 0.477 2.633 0.477 2.633s0.717 0.391 1.523 1.037c0.816 0.648-0.609 1.203-0.609 1.203l-0.279 1.627s0.75 1.133-1.623 1.949c-2.381 0.811-1.689 2.592-1.549 3.441-0.18 0.025-0.348 0.037-0.502 0.037-1.42 0-1.874-0.988-2.876-1.664-0.668-0.452-1.931-0.761-2.826-0.936l-0.861 0.76s2.988 0.391 4.195 1.209c1.095 0.738 1.591 1.818 3.142 1.818 0.17 0 0.352-0.014 0.549-0.041-0.154-0.93-0.91-2.875 1.691-3.76 2.592-0.893 1.773-2.131 1.773-2.131l0.305-1.775c-1e-3 1e-3 1.558-0.604 0.665-1.313z" fill="#FEC929"/>
					<path d="m76.292-4.875c0-6.352-5.82-11.5-13-11.5-7.181 0-13.001 5.148-13.001 11.5v3c0 6.352 5.82 11.5 13.001 11.5 7.18 0 13-5.148 13-11.5v-3z" fill="#D78003"/>
						<path d="m63.292 6.625c-7.181 0-13.001-5.148-13.001-11.5v3c0 6.352 5.82 11.5 13.001 11.5 7.18 0 13-5.148 13-11.5v-3c0 6.352-5.82 11.5-13 11.5z" fill="#D78003"/>
					<path d="m70.417 6.569c0.371-0.242 0.725-0.504 1.063-0.779v-0.54c-0.342 0.221-0.699 0.426-1.063 0.619v0.7zm-2.937 1.381c0.363-0.119 0.715-0.258 1.063-0.406v-0.844c-0.35 0.127-0.701 0.248-1.063 0.35v0.9zm-2.938 0.603c0.359-0.033 0.711-0.086 1.063-0.146v-0.969c-0.352 0.053-0.703 0.1-1.063 0.129v0.986zm-8.813-2.306c0.34 0.244 0.693 0.469 1.063 0.678v-0.745c-0.365-0.172-0.717-0.359-1.063-0.557v0.624zm-1.875-1.664v-0.25c-0.238-0.195-0.479-0.387-0.701-0.596 0.215 0.295 0.455 0.572 0.701 0.846zm4.813 3.224c0.346 0.127 0.703 0.229 1.063 0.326v-0.935c-0.359-0.084-0.715-0.178-1.063-0.287v0.896zm2.937 0.709c0.348 0.043 0.705 0.057 1.063 0.074v-0.994c-0.358-0.014-0.714-0.033-1.063-0.07v0.99z" fill="#FEC929"/>
					<ellipse cx="63.292" cy="-4.875" rx="13" ry="11.5" fill="#FEC929"/>
					<ellipse cx="63.292" cy="-5.067" rx="11.143" ry="9.774" fill="#F9B000"/>
					<path d="m63.292 2.708c-3.856 0-7.325-1.188-9.776-3.08 1.895 3.027 5.561 5.08 9.776 5.08s7.879-2.053 9.773-5.08c-2.45 1.892-5.917 3.08-9.773 3.08z" fill="#F9B000"/>
					<path d="m63.292-10.917c5.121 0 9.469 2.701 11.107 6.473 0.014-0.207 0.035-0.412 0.035-0.621 0-5.4-4.988-9.775-11.143-9.775s-11.146 4.375-11.146 9.775c0 0.209 0.021 0.414 0.037 0.621 1.639-3.772 5.988-6.473 11.11-6.473z" fill="#FFA300"/>
							<path d="m59.576-1.839l0.308-0.271s-3.701-2.441-3.787-5.336c-0.102 2.462 2.285 4.664 3.479 5.607zm10.646-3.453c-0.881-0.708-1.664-1.135-1.664-1.135s0.521-2.094-0.521-2.875c-0.727-0.549-2.889-3.176-5.892-3.176-0.73 0-1.512 0.164-2.333 0.543 0.638-0.25 1.247-0.357 1.821-0.357 2.749 0 4.728 2.404 5.394 2.906 0.955 0.715 0.477 2.633 0.477 2.633s0.717 0.391 1.523 1.037c0.816 0.648-0.609 1.203-0.609 1.203l-0.279 1.627s0.75 1.133-1.623 1.949c-2.381 0.811-1.689 2.592-1.549 3.441-0.18 0.025-0.348 0.037-0.502 0.037-1.42 0-1.874-0.988-2.876-1.664-0.668-0.452-1.931-0.761-2.826-0.936l-0.861 0.76s2.988 0.391 4.195 1.209c1.095 0.738 1.591 1.818 3.142 1.818 0.17 0 0.352-0.014 0.549-0.041-0.154-0.93-0.91-2.875 1.691-3.76 2.592-0.893 1.773-2.131 1.773-2.131l0.305-1.775c-1e-3 1e-3 1.558-0.604 0.665-1.313z" fill="#FEC929"/>
					<path d="m76.292 33.125c0-6.352-5.82-11.5-13-11.5-7.181 0-13.001 5.148-13.001 11.5v3c0 6.352 5.82 11.5 13.001 11.5 7.18 0 13-5.148 13-11.5v-3z" fill="#D78003"/>
						<path d="m63.292 44.625c-7.181 0-13.001-5.148-13.001-11.5v3c0 6.352 5.82 11.5 13.001 11.5 7.18 0 13-5.148 13-11.5v-3c0 6.352-5.82 11.5-13 11.5z" fill="#D78003"/>
					<path d="m70.417 44.569c0.371-0.242 0.725-0.504 1.063-0.779v-0.54c-0.342 0.221-0.699 0.426-1.063 0.619v0.7zm-2.937 1.381c0.363-0.119 0.715-0.258 1.063-0.406v-0.844c-0.35 0.127-0.701 0.248-1.063 0.35v0.9zm-2.938 0.603c0.359-0.033 0.711-0.086 1.063-0.146v-0.969c-0.352 0.053-0.703 0.1-1.063 0.129v0.986zm-8.813-2.306c0.34 0.244 0.693 0.469 1.063 0.678v-0.745c-0.365-0.172-0.717-0.359-1.063-0.557v0.624zm-1.875-1.664v-0.25c-0.238-0.195-0.479-0.387-0.701-0.596 0.215 0.295 0.455 0.572 0.701 0.846zm4.813 3.224c0.346 0.127 0.703 0.229 1.063 0.326v-0.936c-0.359-0.084-0.715-0.178-1.063-0.287v0.897zm2.937 0.709c0.348 0.043 0.705 0.057 1.063 0.074v-0.994c-0.358-0.014-0.714-0.033-1.063-0.07v0.99z" fill="#FEC929"/>
					<ellipse cx="63.292" cy="33.125" rx="13" ry="11.5" fill="#FEC929"/>
					<ellipse cx="63.292" cy="32.933" rx="11.143" ry="9.774" fill="#F9B000"/>
					<path d="m63.292 40.708c-3.856 0-7.325-1.188-9.776-3.08 1.895 3.027 5.561 5.08 9.776 5.08s7.879-2.053 9.773-5.08c-2.45 1.892-5.917 3.08-9.773 3.08z" fill="#F9B000"/>
					<path d="m63.292 27.083c5.121 0 9.469 2.701 11.107 6.473 0.014-0.207 0.035-0.412 0.035-0.621 0-5.4-4.988-9.775-11.143-9.775s-11.146 4.375-11.146 9.775c0 0.209 0.021 0.414 0.037 0.621 1.639-3.772 5.988-6.473 11.11-6.473z" fill="#FFA300"/>
							<path d="m59.576 36.161l0.308-0.271s-3.701-2.441-3.787-5.336c-0.102 2.462 2.285 4.664 3.479 5.607zm10.646-3.453c-0.881-0.707-1.664-1.135-1.664-1.135s0.521-2.094-0.521-2.875c-0.727-0.549-2.889-3.176-5.892-3.176-0.73 0-1.512 0.164-2.333 0.543 0.638-0.25 1.247-0.357 1.821-0.357 2.749 0 4.728 2.404 5.394 2.906 0.955 0.715 0.477 2.633 0.477 2.633s0.717 0.391 1.523 1.037c0.816 0.648-0.609 1.203-0.609 1.203l-0.279 1.627s0.75 1.133-1.623 1.949c-2.381 0.811-1.689 2.592-1.549 3.441-0.18 0.025-0.348 0.037-0.502 0.037-1.42 0-1.874-0.988-2.876-1.664-0.668-0.452-1.931-0.761-2.826-0.936l-0.861 0.76s2.988 0.391 4.195 1.209c1.095 0.738 1.591 1.818 3.142 1.818 0.17 0 0.352-0.014 0.549-0.041-0.154-0.93-0.91-2.875 1.691-3.76 2.592-0.893 1.773-2.131 1.773-2.131l0.305-1.775c-1e-3 1e-3 1.558-0.604 0.665-1.313z" fill="#FEC929"/>
					<path d="m76.292 71.125c0-6.352-5.82-11.5-13-11.5-7.181 0-13.001 5.148-13.001 11.5v3c0 6.352 5.82 11.5 13.001 11.5 7.18 0 13-5.148 13-11.5v-3z" fill="#D78003"/>
						<path d="m63.292 82.625c-7.181 0-13.001-5.148-13.001-11.5v3c0 6.352 5.82 11.5 13.001 11.5 7.18 0 13-5.148 13-11.5v-3c0 6.352-5.82 11.5-13 11.5z" fill="#D78003"/>
					<path d="m70.417 82.569c0.371-0.242 0.725-0.504 1.063-0.779v-0.54c-0.342 0.221-0.699 0.426-1.063 0.619v0.7zm-2.937 1.381c0.363-0.119 0.715-0.258 1.063-0.406v-0.844c-0.35 0.127-0.701 0.248-1.063 0.35v0.9zm-2.938 0.603c0.359-0.033 0.711-0.086 1.063-0.146v-0.969c-0.352 0.053-0.703 0.1-1.063 0.129v0.986zm-8.813-2.306c0.34 0.244 0.693 0.469 1.063 0.678v-0.745c-0.365-0.172-0.717-0.359-1.063-0.557v0.624zm-1.875-1.664v-0.25c-0.238-0.195-0.479-0.387-0.701-0.596 0.215 0.295 0.455 0.572 0.701 0.846zm4.813 3.224c0.346 0.127 0.703 0.229 1.063 0.326v-0.936c-0.359-0.084-0.715-0.178-1.063-0.287v0.897zm2.937 0.709c0.348 0.043 0.705 0.057 1.063 0.074v-0.994c-0.358-0.014-0.714-0.033-1.063-0.07v0.99z" fill="#FEC929"/>
					<ellipse cx="63.292" cy="71.125" rx="13" ry="11.5" fill="#FEC929"/>
					<ellipse cx="63.292" cy="70.933" rx="11.143" ry="9.774" fill="#F9B000"/>
					<path d="m63.292 78.708c-3.856 0-7.325-1.188-9.776-3.08 1.895 3.027 5.561 5.08 9.776 5.08s7.879-2.053 9.773-5.08c-2.45 1.892-5.917 3.08-9.773 3.08z" fill="#F9B000"/>
					<path d="m63.292 65.083c5.121 0 9.469 2.701 11.107 6.473 0.014-0.207 0.035-0.412 0.035-0.621 0-5.4-4.988-9.775-11.143-9.775s-11.146 4.375-11.146 9.775c0 0.209 0.021 0.414 0.037 0.621 1.639-3.772 5.988-6.473 11.11-6.473z" fill="#FFA300"/>
							<path d="m59.576 74.161l0.308-0.271s-3.701-2.441-3.787-5.336c-0.102 2.462 2.285 4.664 3.479 5.607zm10.646-3.453c-0.881-0.707-1.664-1.135-1.664-1.135s0.521-2.094-0.521-2.875c-0.727-0.549-2.889-3.176-5.892-3.176-0.73 0-1.512 0.164-2.333 0.543 0.638-0.25 1.247-0.357 1.821-0.357 2.749 0 4.728 2.404 5.394 2.906 0.955 0.715 0.477 2.633 0.477 2.633s0.717 0.391 1.523 1.037c0.816 0.648-0.609 1.203-0.609 1.203l-0.279 1.627s0.75 1.133-1.623 1.949c-2.381 0.811-1.689 2.592-1.549 3.441-0.18 0.025-0.348 0.037-0.502 0.037-1.42 0-1.874-0.988-2.876-1.664-0.668-0.452-1.931-0.761-2.826-0.936l-0.861 0.76s2.988 0.391 4.195 1.209c1.095 0.738 1.591 1.818 3.142 1.818 0.17 0 0.352-0.014 0.549-0.041-0.154-0.93-0.91-2.875 1.691-3.76 2.592-0.893 1.773-2.131 1.773-2.131l0.305-1.775c-1e-3 1e-3 1.558-0.604 0.665-1.313z" fill="#FEC929"/>
					<path d="m36.292-60.875c0-6.352-5.82-11.5-13-11.5s-13 5.148-13 11.5v3c0 6.352 5.82 11.5 13 11.5s13-5.148 13-11.5v-3z" fill="#D78003"/>
						<path d="m23.292-49.375c-7.18 0-13-5.148-13-11.5v3c0 6.352 5.82 11.5 13 11.5s13-5.148 13-11.5v-3c0 6.352-5.82 11.5-13 11.5z" fill="#D78003"/>
					<path d="m30.417-49.431c0.371-0.242 0.725-0.504 1.063-0.779v-0.539c-0.342 0.221-0.699 0.426-1.063 0.619v0.699zm-2.937 1.381c0.363-0.119 0.715-0.258 1.063-0.406v-0.844c-0.35 0.127-0.701 0.248-1.063 0.35v0.9zm-2.938 0.603c0.359-0.033 0.711-0.086 1.063-0.146v-0.969c-0.352 0.053-0.703 0.1-1.063 0.129v0.986zm-8.813-2.306c0.34 0.244 0.693 0.469 1.063 0.678v-0.744c-0.365-0.172-0.718-0.359-1.063-0.557v0.623zm-1.875-1.664v-0.25c-0.238-0.195-0.479-0.387-0.701-0.596 0.214 0.295 0.455 0.572 0.701 0.846zm4.813 3.224c0.345 0.127 0.703 0.229 1.063 0.326v-0.936c-0.359-0.084-0.715-0.178-1.063-0.287v0.897zm2.937 0.709c0.347 0.043 0.705 0.057 1.063 0.074v-0.994c-0.358-0.014-0.714-0.033-1.063-0.07v0.99z" fill="#FEC929"/>
					<ellipse cx="23.292" cy="-60.875" rx="13" ry="11.5" fill="#FEC929"/>
					<ellipse cx="23.292" cy="-61.067" rx="11.143" ry="9.774" fill="#F9B000"/>
					<path d="m23.292-53.292c-3.857 0-7.325-1.188-9.776-3.08 1.894 3.027 5.561 5.08 9.776 5.08s7.879-2.053 9.773-5.08c-2.45 1.892-5.917 3.08-9.773 3.08z" fill="#F9B000"/>
					<path d="m23.292-66.917c5.121 0 9.469 2.701 11.107 6.473 0.014-0.207 0.035-0.412 0.035-0.621 0-5.4-4.988-9.775-11.143-9.775s-11.145 4.375-11.145 9.775c0 0.209 0.021 0.414 0.036 0.621 1.639-3.772 5.988-6.473 11.11-6.473z" fill="#FFA300"/>
							<path d="m19.576-57.839l0.307-0.271s-3.701-2.441-3.787-5.336c-0.101 2.462 2.286 4.664 3.48 5.607zm10.646-3.453c-0.881-0.707-1.664-1.135-1.664-1.135s0.521-2.094-0.521-2.875c-0.727-0.549-2.889-3.176-5.892-3.176-0.73 0-1.512 0.164-2.333 0.543 0.637-0.25 1.247-0.357 1.822-0.357 2.749 0 4.727 2.404 5.393 2.906 0.955 0.715 0.477 2.633 0.477 2.633s0.717 0.391 1.523 1.037c0.816 0.648-0.609 1.203-0.609 1.203l-0.279 1.627s0.75 1.133-1.623 1.949c-2.381 0.811-1.689 2.592-1.549 3.441-0.18 0.025-0.348 0.037-0.502 0.037-1.42 0-1.874-0.988-2.876-1.664-0.668-0.452-1.93-0.761-2.826-0.936l-0.861 0.76s2.988 0.391 4.195 1.209c1.095 0.738 1.591 1.818 3.142 1.818 0.17 0 0.352-0.014 0.549-0.041-0.154-0.93-0.91-2.875 1.691-3.76 2.592-0.893 1.773-2.131 1.773-2.131l0.305-1.775c-1e-3 1e-3 1.558-0.604 0.665-1.313z" fill="#FEC929"/>
					<path d="m36.292-22.875c0-6.352-5.82-11.5-13-11.5s-13 5.148-13 11.5v3c0 6.352 5.82 11.5 13 11.5s13-5.148 13-11.5v-3z" fill="#D78003"/>
						<path d="m23.292-11.375c-7.18 0-13-5.148-13-11.5v3c0 6.352 5.82 11.5 13 11.5s13-5.148 13-11.5v-3c0 6.352-5.82 11.5-13 11.5z" fill="#D78003"/>
					<path d="m30.417-11.431c0.371-0.242 0.725-0.504 1.063-0.779v-0.539c-0.342 0.221-0.699 0.426-1.063 0.619v0.699zm-2.937 1.381c0.363-0.119 0.715-0.258 1.063-0.406v-0.844c-0.35 0.127-0.701 0.248-1.063 0.35v0.9zm-2.938 0.603c0.359-0.033 0.711-0.086 1.063-0.146v-0.969c-0.352 0.053-0.703 0.1-1.063 0.129v0.986zm-8.813-2.306c0.34 0.244 0.693 0.469 1.063 0.678v-0.744c-0.365-0.172-0.718-0.359-1.063-0.557v0.623zm-1.875-1.664v-0.25c-0.238-0.195-0.479-0.387-0.701-0.596 0.214 0.295 0.455 0.572 0.701 0.846zm4.813 3.224c0.345 0.127 0.703 0.229 1.063 0.326v-0.936c-0.359-0.084-0.715-0.178-1.063-0.287v0.897zm2.937 0.709c0.347 0.043 0.705 0.057 1.063 0.074v-0.994c-0.358-0.014-0.714-0.033-1.063-0.07v0.99z" fill="#FEC929"/>
					<ellipse cx="23.292" cy="-22.875" rx="13" ry="11.5" fill="#FEC929"/>
					<ellipse cx="23.292" cy="-23.067" rx="11.143" ry="9.774" fill="#F9B000"/>
					<path d="m23.292-15.292c-3.857 0-7.325-1.188-9.776-3.08 1.894 3.027 5.561 5.08 9.776 5.08s7.879-2.053 9.773-5.08c-2.45 1.892-5.917 3.08-9.773 3.08z" fill="#F9B000"/>
					<path d="m23.292-28.917c5.121 0 9.469 2.701 11.107 6.473 0.014-0.207 0.035-0.412 0.035-0.621 0-5.4-4.988-9.775-11.143-9.775s-11.145 4.375-11.145 9.775c0 0.209 0.021 0.414 0.036 0.621 1.639-3.772 5.988-6.473 11.11-6.473z" fill="#FFA300"/>
							<path d="m19.576-19.839l0.307-0.271s-3.701-2.441-3.787-5.336c-0.101 2.462 2.286 4.664 3.48 5.607zm10.646-3.453c-0.881-0.707-1.664-1.135-1.664-1.135s0.521-2.094-0.521-2.875c-0.727-0.549-2.889-3.176-5.892-3.176-0.73 0-1.512 0.164-2.333 0.543 0.637-0.25 1.247-0.357 1.822-0.357 2.749 0 4.727 2.404 5.393 2.906 0.955 0.715 0.477 2.633 0.477 2.633s0.717 0.391 1.523 1.037c0.816 0.648-0.609 1.203-0.609 1.203l-0.279 1.627s0.75 1.133-1.623 1.949c-2.381 0.811-1.689 2.592-1.549 3.441-0.18 0.025-0.348 0.037-0.502 0.037-1.42 0-1.874-0.988-2.876-1.664-0.668-0.452-1.93-0.761-2.826-0.936l-0.861 0.76s2.988 0.391 4.195 1.209c1.095 0.738 1.591 1.818 3.142 1.818 0.17 0 0.352-0.014 0.549-0.041-0.154-0.93-0.91-2.875 1.691-3.76 2.592-0.893 1.773-2.131 1.773-2.131l0.305-1.775c-1e-3 1e-3 1.558-0.604 0.665-1.313z" fill="#FEC929"/>
					<path d="m36.292 15.125c0-6.352-5.82-11.5-13-11.5s-13 5.148-13 11.5v3c0 6.352 5.82 11.5 13 11.5s13-5.148 13-11.5v-3z" fill="#D78003"/>
						<path d="m23.292 26.625c-7.18 0-13-5.148-13-11.5v3c0 6.352 5.82 11.5 13 11.5s13-5.148 13-11.5v-3c0 6.352-5.82 11.5-13 11.5z" fill="#D78003"/>
					<path d="m30.417 26.569c0.371-0.242 0.725-0.504 1.063-0.779v-0.54c-0.342 0.221-0.699 0.426-1.063 0.619v0.7zm-2.937 1.381c0.363-0.119 0.715-0.258 1.063-0.406v-0.844c-0.35 0.127-0.701 0.248-1.063 0.35v0.9zm-2.938 0.603c0.359-0.033 0.711-0.086 1.063-0.146v-0.969c-0.352 0.053-0.703 0.1-1.063 0.129v0.986zm-8.813-2.306c0.34 0.244 0.693 0.469 1.063 0.678v-0.745c-0.365-0.172-0.718-0.359-1.063-0.557v0.624zm-1.875-1.664v-0.25c-0.238-0.195-0.479-0.387-0.701-0.596 0.214 0.295 0.455 0.572 0.701 0.846zm4.813 3.224c0.345 0.127 0.703 0.229 1.063 0.326v-0.936c-0.359-0.084-0.715-0.178-1.063-0.287v0.897zm2.937 0.709c0.347 0.043 0.705 0.057 1.063 0.074v-0.994c-0.358-0.014-0.714-0.033-1.063-0.07v0.99z" fill="#FEC929"/>
					<ellipse cx="23.292" cy="15.125" rx="13" ry="11.5" fill="#FEC929"/>
					<ellipse cx="23.292" cy="14.933" rx="11.143" ry="9.774" fill="#F9B000"/>
					<path d="m23.292 22.708c-3.857 0-7.325-1.188-9.776-3.08 1.894 3.027 5.561 5.08 9.776 5.08s7.879-2.053 9.773-5.08c-2.45 1.892-5.917 3.08-9.773 3.08z" fill="#F9B000"/>
					<path d="m23.292 9.083c5.121 0 9.469 2.701 11.107 6.473 0.014-0.207 0.035-0.412 0.035-0.621 0-5.4-4.988-9.775-11.143-9.775s-11.145 4.375-11.145 9.775c0 0.209 0.021 0.414 0.036 0.621 1.639-3.772 5.988-6.473 11.11-6.473z" fill="#FFA300"/>
							<path d="m19.576 18.161l0.307-0.271s-3.701-2.441-3.787-5.336c-0.101 2.462 2.286 4.664 3.48 5.607zm10.646-3.453c-0.881-0.707-1.664-1.135-1.664-1.135s0.521-2.094-0.521-2.875c-0.727-0.549-2.889-3.176-5.892-3.176-0.73 0-1.512 0.164-2.333 0.543 0.637-0.25 1.247-0.357 1.822-0.357 2.749 0 4.727 2.404 5.393 2.906 0.955 0.715 0.477 2.633 0.477 2.633s0.717 0.391 1.523 1.037c0.816 0.648-0.609 1.203-0.609 1.203l-0.279 1.627s0.75 1.133-1.623 1.949c-2.381 0.811-1.689 2.592-1.549 3.441-0.18 0.025-0.348 0.037-0.502 0.037-1.42 0-1.874-0.988-2.876-1.664-0.668-0.452-1.93-0.761-2.826-0.936l-0.861 0.76s2.988 0.391 4.195 1.209c1.095 0.738 1.591 1.818 3.142 1.818 0.17 0 0.352-0.014 0.549-0.041-0.154-0.93-0.91-2.875 1.691-3.76 2.592-0.893 1.773-2.131 1.773-2.131l0.305-1.775c-1e-3 1e-3 1.558-0.604 0.665-1.313z" fill="#FEC929"/>
					<path d="m36.292 53.125c0-6.352-5.82-11.5-13-11.5s-13 5.148-13 11.5v3c0 6.352 5.82 11.5 13 11.5s13-5.148 13-11.5v-3z" fill="#D78003"/>
						<path d="m23.292 64.625c-7.18 0-13-5.148-13-11.5v3c0 6.352 5.82 11.5 13 11.5s13-5.148 13-11.5v-3c0 6.352-5.82 11.5-13 11.5z" fill="#D78003"/>
					<path d="m30.417 64.569c0.371-0.242 0.725-0.504 1.063-0.779v-0.54c-0.342 0.221-0.699 0.426-1.063 0.619v0.7zm-2.937 1.381c0.363-0.119 0.715-0.258 1.063-0.406v-0.844c-0.35 0.127-0.701 0.248-1.063 0.35v0.9zm-2.938 0.603c0.359-0.033 0.711-0.086 1.063-0.146v-0.969c-0.352 0.053-0.703 0.1-1.063 0.129v0.986zm-8.813-2.306c0.34 0.244 0.693 0.469 1.063 0.678v-0.745c-0.365-0.172-0.718-0.359-1.063-0.557v0.624zm-1.875-1.664v-0.25c-0.238-0.195-0.479-0.387-0.701-0.596 0.214 0.295 0.455 0.572 0.701 0.846zm4.813 3.224c0.345 0.127 0.703 0.229 1.063 0.326v-0.936c-0.359-0.084-0.715-0.178-1.063-0.287v0.897zm2.937 0.709c0.347 0.043 0.705 0.057 1.063 0.074v-0.994c-0.358-0.014-0.714-0.033-1.063-0.07v0.99z" fill="#FEC929"/>
					<ellipse cx="23.292" cy="53.125" rx="13" ry="11.5" fill="#FEC929"/>
					<ellipse cx="23.292" cy="52.933" rx="11.143" ry="9.774" fill="#F9B000"/>
					<path d="m23.292 60.708c-3.857 0-7.325-1.188-9.776-3.08 1.894 3.027 5.561 5.08 9.776 5.08s7.879-2.053 9.773-5.08c-2.45 1.892-5.917 3.08-9.773 3.08z" fill="#F9B000"/>
					<path d="m23.292 47.083c5.121 0 9.469 2.701 11.107 6.473 0.014-0.207 0.035-0.412 0.035-0.621 0-5.4-4.988-9.775-11.143-9.775s-11.145 4.375-11.145 9.775c0 0.209 0.021 0.414 0.036 0.621 1.639-3.772 5.988-6.473 11.11-6.473z" fill="#FFA300"/>
							<path d="m19.576 56.161l0.307-0.271s-3.701-2.441-3.787-5.336c-0.101 2.462 2.286 4.664 3.48 5.607zm10.646-3.453c-0.881-0.707-1.664-1.135-1.664-1.135s0.521-2.094-0.521-2.875c-0.727-0.549-2.889-3.176-5.892-3.176-0.73 0-1.512 0.164-2.333 0.543 0.637-0.25 1.247-0.357 1.822-0.357 2.749 0 4.727 2.404 5.393 2.906 0.955 0.715 0.477 2.633 0.477 2.633s0.717 0.391 1.523 1.037c0.816 0.648-0.609 1.203-0.609 1.203l-0.279 1.627s0.75 1.133-1.623 1.949c-2.381 0.811-1.689 2.592-1.549 3.441-0.18 0.025-0.348 0.037-0.502 0.037-1.42 0-1.874-0.988-2.876-1.664-0.668-0.452-1.93-0.761-2.826-0.936l-0.861 0.76s2.988 0.391 4.195 1.209c1.095 0.738 1.591 1.818 3.142 1.818 0.17 0 0.352-0.014 0.549-0.041-0.154-0.93-0.91-2.875 1.691-3.76 2.592-0.893 1.773-2.131 1.773-2.131l0.305-1.775c-1e-3 1e-3 1.558-0.604 0.665-1.313z" fill="#FEC929"/>
					<path d="m36.292 91.125c0-6.352-5.82-11.5-13-11.5s-13 5.148-13 11.5v3c0 6.352 5.82 11.5 13 11.5s13-5.148 13-11.5v-3z" fill="#D78003"/>
						<path d="m23.292 102.62c-7.18 0-13-5.148-13-11.5v3c0 6.352 5.82 11.5 13 11.5s13-5.148 13-11.5v-3c0 6.352-5.82 11.5-13 11.5z" fill="#D78003"/>
					<path d="m30.417 102.57c0.371-0.242 0.725-0.504 1.063-0.779v-0.539c-0.342 0.221-0.699 0.426-1.063 0.619v0.699zm-2.937 1.381c0.363-0.119 0.715-0.258 1.063-0.406v-0.844c-0.35 0.127-0.701 0.248-1.063 0.35v0.9zm-2.938 0.603c0.359-0.033 0.711-0.086 1.063-0.146v-0.969c-0.352 0.053-0.703 0.1-1.063 0.129v0.986zm-8.813-2.306c0.34 0.244 0.693 0.469 1.063 0.678v-0.744c-0.365-0.172-0.718-0.359-1.063-0.557v0.623zm-1.875-1.664v-0.25c-0.238-0.195-0.479-0.387-0.701-0.596 0.214 0.295 0.455 0.572 0.701 0.846zm4.813 3.224c0.345 0.127 0.703 0.229 1.063 0.326v-0.936c-0.359-0.084-0.715-0.178-1.063-0.287v0.897zm2.937 0.709c0.347 0.043 0.705 0.057 1.063 0.074v-0.994c-0.358-0.014-0.714-0.033-1.063-0.07v0.99z" fill="#FEC929"/>
					<ellipse cx="23.292" cy="91.125" rx="13" ry="11.5" fill="#FEC929"/>
					<ellipse cx="23.292" cy="90.933" rx="11.143" ry="9.774" fill="#F9B000"/>
					<path d="m23.292 98.708c-3.857 0-7.325-1.188-9.776-3.08 1.894 3.027 5.561 5.08 9.776 5.08s7.879-2.053 9.773-5.08c-2.45 1.892-5.917 3.08-9.773 3.08z" fill="#F9B000"/>
					<path d="m23.292 85.083c5.121 0 9.469 2.701 11.107 6.473 0.014-0.207 0.035-0.412 0.035-0.621 0-5.4-4.988-9.775-11.143-9.775s-11.145 4.375-11.145 9.775c0 0.209 0.021 0.414 0.036 0.621 1.639-3.772 5.988-6.473 11.11-6.473z" fill="#FFA300"/>
							<path d="m19.576 94.161l0.307-0.271s-3.701-2.441-3.787-5.336c-0.101 2.462 2.286 4.664 3.48 5.607zm10.646-3.453c-0.881-0.707-1.664-1.135-1.664-1.135s0.521-2.094-0.521-2.875c-0.727-0.549-2.889-3.176-5.892-3.176-0.73 0-1.512 0.164-2.333 0.543 0.637-0.25 1.247-0.357 1.822-0.357 2.749 0 4.727 2.404 5.393 2.906 0.955 0.715 0.477 2.633 0.477 2.633s0.717 0.391 1.523 1.037c0.816 0.648-0.609 1.203-0.609 1.203l-0.279 1.627s0.75 1.133-1.623 1.949c-2.381 0.811-1.689 2.592-1.549 3.441-0.18 0.025-0.348 0.037-0.502 0.037-1.42 0-1.874-0.988-2.876-1.664-0.668-0.452-1.93-0.761-2.826-0.936l-0.861 0.76s2.988 0.391 4.195 1.209c1.095 0.738 1.591 1.818 3.142 1.818 0.17 0 0.352-0.014 0.549-0.041-0.154-0.93-0.91-2.875 1.691-3.76 2.592-0.893 1.773-2.131 1.773-2.131l0.305-1.775c-1e-3 1e-3 1.558-0.604 0.665-1.313z" fill="#FEC929"/>
	</g>
</svg>
