<?xml version="1.0" encoding="UTF-8"?>
<svg version="1.1" viewBox="0 0 14 40" xmlns="http://www.w3.org/2000/svg">
<path d="m5.2558 12.173h3.2315c2.2091 0 4 1.7909 4 4 0 0.37389-0.052422 0.74594-0.15573 1.1053l-4.5322 15.763h0.82465c1.5055 0 2.7259 1.2204 2.7259 2.7259 0 0.25474-0.035708 0.50822-0.10608 0.75305l-0.16786 0.58396c-0.49272 1.7141-2.0608 2.895-3.8443 2.895h-3.2316c-2.2091 0-4-1.7909-4-4 0-0.37381 0.052399-0.74577 0.15567-1.105l0.53258-1.8528 4-13.912h-0.82542c-1.505 0-2.7251-1.2201-2.7251-2.7251 0-0.25472 0.035714-0.50819 0.1061-0.753l0.16773-0.58339c0.4928-1.714 2.0608-2.8947 3.8443-2.8947zm-0.45644-7.7866c0-1.2012 0.43264-2.2326 1.2979-3.0943s1.901-1.2925 3.1072-1.2925c1.2586 0 2.3205 0.43084 3.1858 1.2925s1.2979 1.8931 1.2979 3.0943-0.43264 2.2195-1.2979 3.0551c-0.86529 0.83559-1.9272 1.2534-3.1858 1.2534-1.2062 0-2.2419-0.41779-3.1072-1.2534-0.86529-0.83559-1.2979-1.8539-1.2979-3.0551z"/>
</svg>
