<?xml version="1.0" encoding="UTF-8"?>
<svg width="40px" height="40px" viewBox="0 0 40 40" version="1.1" xmlns="http://www.w3.org/2000/svg" xmlns:xlink="http://www.w3.org/1999/xlink">
  <path d="M0,20 C0,8.98550725 8.98397542,0 19.9965905,0 C31.0092055,0 39.9931809,8.98550725 39.9931809,20.2898551 C40.2829866,31.0144928 31.2990111,40 19.9965905,40 C8.98397542,40 0,31.0144928 0,20 Z M20.2166812,32.4248853 C27.1566772,32.4248853 32.7620585,26.8544431 32.7620585,19.9577051 C32.7620585,13.0609671 27.1566772,7.49052488 20.2166812,7.49052488 C13.2766853,7.49052488 7.67130399,13.0609671 7.67130399,19.9577051 C7.67130399,26.8544431 13.2766853,32.4248853 20.2166812,32.4248853 Z M33.9547587,32.6122288 C34.4637597,32.1064005 34.9727606,31.6005722 35.2272611,31.0947439 C36.2452631,29.8301731 36.7542641,28.5656023 37.5177656,27.0481174 L37.5177656,26.7952032 C37.0087646,26.5422891 36.7542641,26.2893749 36.2452631,26.0364608 C35.7362621,25.7835466 34.9727606,26.0364608 34.7182601,26.5422891 L32.4277557,30.3360014 C32.1732552,30.8418297 32.1732552,31.347658 32.6822562,31.8534863 C32.9367567,31.8534863 33.4457577,32.1064005 33.9547587,32.6122288 Z M20.2958546,4.65559864 L22.586359,4.65559864 C23.3498605,4.65559864 23.8588614,4.14977033 23.8588614,3.64394201 L23.8588614,2.63228539 C23.8588614,2.37937123 23.8588614,2.37937123 23.604361,2.37937123 C21.568357,1.87354292 19.2778526,1.87354292 16.9873481,2.37937123 C16.7328477,2.37937123 16.7328477,2.37937123 16.7328477,2.63228539 L16.7328477,3.64394201 C16.7328477,4.40268448 17.2418486,4.90851279 18.0053501,4.90851279 C18.2598506,4.65559864 20.2958546,4.65559864 20.2958546,4.65559864 Z M8.28088522,30.8418297 C8.28088522,30.8418297 8.28088522,30.5889156 8.02638473,30.3360014 L5.73588029,26.5422891 C5.4813798,26.0364608 4.71787832,25.7835466 4.20887734,26.0364608 C3.95437685,26.2893749 3.44537586,26.5422891 3.19087537,26.5422891 C2.93637488,26.5422891 2.93637488,26.7952032 3.19087537,26.7952032 C3.44537586,27.3010315 3.69987635,28.059774 3.95437685,28.5656023 C4.71787832,29.8301731 5.4813798,31.0947439 6.49938177,32.1064005 C6.49938177,32.1064005 6.75388226,32.3593147 6.75388226,32.1064005 C7.00838276,31.8534863 7.51738374,31.6005722 8.02638473,31.347658 C8.02638473,31.6005722 8.28088522,31.347658 8.28088522,30.8418297 Z M2.68187595,15.1443737 C3.19087693,15.3972879 3.69987792,15.650202 3.95437841,15.9031162 C4.4633794,16.1560304 5.22688087,15.9031162 5.48138137,15.3972879 C6.24488284,14.1327171 6.75388383,12.8681463 7.51738531,11.6035755 C7.7718858,10.8448331 7.7718858,10.3390048 7.00838432,9.83317645 C6.75388383,9.5802623 6.24488284,9.5802623 5.99038235,9.32734814 L5.73588186,9.32734814 C4.97238038,10.3390048 4.2088789,11.6035755 3.69987792,12.8681463 C3.19087693,13.6268888 2.93637644,14.3856313 2.68187595,15.1443737 Z M38,15.3972876 C38,14.8914593 37.7454995,14.6385452 37.7454995,14.385631 C37.2364985,12.6152319 36.2184966,11.097747 35.2004946,9.83317621 C35.2004946,9.83317621 35.2004946,9.58026206 34.9459941,9.58026206 C34.4369931,9.83317621 34.1824926,10.0860904 33.6734916,10.0860904 C33.1644906,10.3390045 32.9099902,11.097747 33.1644906,11.6035753 C33.9279921,12.8681461 34.4369931,14.1327169 35.2004946,15.6502018 C35.4549951,16.1560301 36.2184966,16.4089443 36.7274975,16.1560301 C36.981998,15.903116 37.490999,15.6502018 38,15.3972876 Z M23.776694,37.6423254 L23.776694,36.3777546 C23.776694,35.6190121 23.267693,35.1131838 22.5041915,35.1131838 L17.9231826,35.1131838 C17.1596812,35.1131838 16.6506802,35.6190121 16.6506802,36.3777546 L16.6506802,37.3894112 C16.6506802,37.6423254 16.6506802,37.6423254 16.9051807,37.6423254 C18.4321836,37.8952395 19.9591866,38.1481537 21.74069,37.8952395 C22.5041915,37.8952395 23.0131925,37.6423254 23.776694,37.6423254 Z M30.2529831,19.8375395 C30.2529831,25.3651567 25.7127513,29.9314492 20.2166812,29.9314492 C14.7206112,29.9314492 10.1803794,25.3651567 10.1803794,19.8375395 C10.1803794,14.3099222 14.7206112,9.98396092 20.4556408,9.98396092 C25.9517109,9.98396092 30.2529831,14.5502534 30.2529831,19.8375395 Z M18.0660451,25.8458191 L25.4737917,20.0778707 L18.0660451,14.3099222 L18.0660451,25.8458191 Z"></path>
</svg>
