<?xml version="1.0" encoding="UTF-8"?>
<svg width="48px" height="48px" viewBox="0 0 48 48" version="1.1" xmlns="http://www.w3.org/2000/svg" xmlns:xlink="http://www.w3.org/1999/xlink">
    <g stroke="none" stroke-width="1" fill-rule="evenodd">
        <path d="M24,0 C10.7452258,0 0,10.745129 0,24 C0,37.254871 10.7452258,48 24,48 C37.2547742,48 48,37.2547742 48,24 C48,10.7452258 37.254871,0 24,0 Z M36.7876589,11.212422 C43.1168872,17.5416547 43.5570939,27.2154741 38.7872533,34 L14,9.2129229 C20.7891631,4.4398877 30.461912,4.8867674 36.7876589,11.212422 Z M11.2123411,36.7875521 C4.8831128,30.4583266 4.4429061,20.7845181 9.2127467,14 L34,38.7870489 C27.2109336,43.5600787 17.538088,43.1132961 11.2123411,36.7875521 Z" fill-rule="nonzero"></path>
    </g>
</svg>
