<?xml version="1.0" encoding="UTF-8"?>
<svg width="48px" height="48px" viewBox="0 0 48 48" version="1.1" xmlns="http://www.w3.org/2000/svg" xmlns:xlink="http://www.w3.org/1999/xlink">
    <g stroke="none" stroke-width="1" fill-rule="evenodd">
        <path d="M24,0 C10.7419355,0 0,10.7419355 0,24 C0,37.2580645 10.7419355,48 24,48 C37.2580645,48 48,37.2580645 48,24 C48,10.7419355 37.2580645,0 24,0 Z M24,43.3548387 C13.3064516,43.3548387 4.6451613,34.6935484 4.6451613,24 C4.6451613,13.3064516 13.3064516,4.6451613 24,4.6451613 C34.6935484,4.6451613 43.3548387,13.3064516 43.3548387,24 C43.3548387,34.6935484 34.6935484,43.3548387 24,43.3548387 Z M29.9806452,33.2516129 L21.7645161,27.2806452 C21.4645161,27.0580645 21.2903226,26.7096774 21.2903226,26.3419355 L21.2903226,10.4516129 C21.2903226,9.8129032 21.8129032,9.2903226 22.4516129,9.2903226 L25.5483871,9.2903226 C26.1870968,9.2903226 26.7096774,9.8129032 26.7096774,10.4516129 L26.7096774,24.1645161 L33.1741935,28.8677419 C33.6967742,29.2451613 33.8032258,29.9709677 33.4258065,30.4935484 L31.6064516,33 C31.2290323,33.5129032 30.5032258,33.6290323 29.9806452,33.2516129 Z" fill-rule="nonzero"></path>
    </g>
</svg>
