<?xml version="1.0" encoding="UTF-8"?>
<svg width="48px" height="48px" viewBox="0 0 48 48" version="1.1" xmlns="http://www.w3.org/2000/svg" xmlns:xlink="http://www.w3.org/1999/xlink">
    <g stroke="none" stroke-width="1" fill-rule="evenodd">
        <path d="M48,24 C48,37.2577742 37.2539032,48 24,48 C10.7460968,48 0,37.2577742 0,24 C0,10.7499677 10.7460968,0 24,0 C37.2539032,0 48,10.7499677 48,24 Z M24,28.8387097 C21.5414516,28.8387097 19.5483871,30.8317742 19.5483871,33.2903226 C19.5483871,35.748871 21.5414516,37.7419355 24,37.7419355 C26.4585484,37.7419355 28.4516129,35.748871 28.4516129,33.2903226 C28.4516129,30.8317742 26.4585484,28.8387097 24,28.8387097 Z M19.7735806,12.8374839 L20.4914516,25.9987742 C20.5250323,26.6146452 21.0342581,27.0967742 21.651,27.0967742 L26.349,27.0967742 C26.9657419,27.0967742 27.4749677,26.6146452 27.5085484,25.9987742 L28.2264194,12.8374839 C28.2627097,12.1722581 27.7330645,11.6129032 27.066871,11.6129032 L20.9330323,11.6129032 C20.2668387,11.6129032 19.7372903,12.1722581 19.7735806,12.8374839 L19.7735806,12.8374839 Z" fill-rule="nonzero"></path>
    </g>
</svg>
