<?xml version="1.0" encoding="UTF-8"?>
<svg width="48px" height="48px" viewBox="0 0 48 48" version="1.1" xmlns="http://www.w3.org/2000/svg" xmlns:xlink="http://www.w3.org/1999/xlink">
    <g stroke="none" stroke-width="1" fill-rule="evenodd">
      <path d="M0,38 L0,42.0018744 C0,45.3102156 8.2864583,48 18.5,48 C28.7135417,48 37,45.3102156 37,42.0018744 L37,38 C33.0205729,40.7272727 25.7458333,42.0018744 18.5,42.0018744 C11.2541667,42.0018744 3.9794271,40.7272727 0,38 Z M29.5,13 C39.7135417,13 48,10.0851562 48,6.5 C48,2.9148437 39.7135417,0 29.5,0 C19.2864583,0 11,2.9148437 11,6.5 C11,10.0851562 19.2864583,13 29.5,13 Z M0,28 L0,32.9100346 C0,36.2690311 8.2864583,39 18.5,39 C28.7135417,39 37,36.2690311 37,32.9100346 L37,28 C33.0205729,31.2352941 25.7361979,32.9100346 18.5,32.9100346 C11.2638021,32.9100346 3.9794271,31.2352941 0,28 Z M39,29 C44.371875,27.9816514 48,26.0917431 48,23.9174312 L48,20 C45.825,21.5045872 42.628125,22.5321101 39,23.1651376 L39,29 Z M18.5,15 C8.2864583,15 0,18.35625 0,22.5 C0,26.64375 8.2864583,30 18.5,30 C28.7135417,30 37,26.64375 37,22.5 C37,18.35625 28.7135417,15 18.5,15 Z M38.6004978,20 C44.2009956,19.0181818 48,17.0909091 48,14.8818182 L48,11 C44.6863721,13.2818182 38.9925327,14.5090909 33,14.8 C35.7535781,16.1 37.7790915,17.8454545 38.6004978,20 Z" fill-rule="nonzero"></path>
    </g>
</svg>
