<?xml version="1.0" encoding="UTF-8"?>
<svg width="48px" height="36px" viewBox="0 0 48 36" version="1.1" xmlns="http://www.w3.org/2000/svg" xmlns:xlink="http://www.w3.org/1999/xlink">
    <g stroke="none" stroke-width="1" fill-rule="evenodd">
        <path d="M46.5,30 L6,30 L6,1.5 C6,0.67125 5.32875,0 4.5,0 L1.5,0 C0.67125,0 0,0.67125 0,1.5 L0,33 C0,34.6565625 1.3434375,36 3,36 L46.5,36 C47.32875,36 48,35.32875 48,34.5 L48,31.5 C48,30.67125 47.32875,30 46.5,30 Z M43.5008878,24 L32.4324028,24 C30.4279626,24 29.4238674,21.5765084 30.8414135,20.1589768 L33.8790123,17.121409 L27.0003511,10.2418804 L20.1216899,17.1204714 C18.9497767,18.2923726 17.05034,18.2923726 15.8793644,17.1204714 L9.4394674,10.6806402 C8.8535109,10.0946896 8.8535109,9.1449809 9.4394674,8.5590303 L11.5601614,6.438358 C12.146118,5.8524074 13.0958363,5.8524074 13.6817929,6.438358 L18.0000584,10.7575169 L24.8787196,3.8789259 C26.0506327,2.7070247 27.9500695,2.7070247 29.1210451,3.8789259 L38.1213378,12.8791268 L41.1589366,9.841559 C42.5764827,8.4240273 44.999999,9.4281122 44.999999,11.432532 L44.999999,22.4999665 C45.0009365,23.328735 44.3296647,24 43.5008878,24 Z" fill-rule="nonzero"></path>
    </g>
</svg>
